<svg width="1440" height="357" viewBox="0 0 1440 357" fill="none" xmlns="http://www.w3.org/2000/svg">
<rect width="1440" height="357" fill="#E5E5E5"/>
<g clip-path="url(#clip0_0_1)">
<rect width="1440" height="1479" transform="translate(0 -62)" fill="white"/>
<rect width="1440" height="357" fill="#82BAC2"/>
<path d="M762.804 114.4L757.792 129.38L752.836 114.4H749.476L744.408 129.296L739.536 114.4H735.756L742.252 134H746.144L751.072 119.496L755.916 134H759.78L766.276 114.4H762.804ZM781.84 126.608C781.84 121.932 778.648 118.88 774.28 118.88C769.828 118.88 766.552 122.072 766.552 126.524C766.552 130.976 769.8 134.196 774.812 134.196C777.388 134.196 779.488 133.356 780.832 131.76L778.956 129.604C777.892 130.696 776.576 131.228 774.896 131.228C772.292 131.228 770.472 129.828 770.052 127.644H781.784C781.812 127.308 781.84 126.888 781.84 126.608ZM774.28 121.68C776.576 121.68 778.228 123.164 778.508 125.32H770.024C770.36 123.136 772.012 121.68 774.28 121.68ZM796.346 113.224V120.896C795.17 119.524 793.462 118.88 791.53 118.88C787.19 118.88 783.97 121.876 783.97 126.524C783.97 131.172 787.19 134.196 791.53 134.196C793.574 134.196 795.31 133.496 796.486 132.068V134H799.846V113.224H796.346ZM791.95 131.2C789.43 131.2 787.498 129.38 787.498 126.524C787.498 123.668 789.43 121.848 791.95 121.848C794.47 121.848 796.402 123.668 796.402 126.524C796.402 129.38 794.47 131.2 791.95 131.2ZM815.569 113.224V120.896C814.393 119.524 812.685 118.88 810.753 118.88C806.413 118.88 803.193 121.876 803.193 126.524C803.193 131.172 806.413 134.196 810.753 134.196C812.797 134.196 814.533 133.496 815.709 132.068V134H819.069V113.224H815.569ZM811.173 131.2C808.653 131.2 806.721 129.38 806.721 126.524C806.721 123.668 808.653 121.848 811.173 121.848C813.693 121.848 815.625 123.668 815.625 126.524C815.625 129.38 813.693 131.2 811.173 131.2ZM825.412 116.584C826.728 116.584 827.652 115.632 827.652 114.4C827.652 113.252 826.7 112.384 825.412 112.384C824.124 112.384 823.172 113.308 823.172 114.484C823.172 115.66 824.124 116.584 825.412 116.584ZM823.648 134H827.148V119.048H823.648V134ZM840.225 118.88C838.041 118.88 836.221 119.608 835.073 120.98V119.048H831.741V134H835.241V126.44C835.241 123.444 836.921 121.932 839.413 121.932C841.653 121.932 842.969 123.22 842.969 125.88V134H846.469V125.432C846.469 120.924 843.809 118.88 840.225 118.88ZM862.554 119.048V121.036C861.322 119.552 859.474 118.88 857.374 118.88C853.09 118.88 849.814 121.736 849.814 126.076C849.814 130.416 853.09 133.328 857.374 133.328C859.39 133.328 861.154 132.684 862.386 131.34V132.124C862.386 135.148 860.93 136.66 857.626 136.66C855.554 136.66 853.426 135.96 852.11 134.868L850.542 137.5C852.25 138.9 855.022 139.628 857.822 139.628C863.058 139.628 865.886 137.164 865.886 131.732V119.048H862.554ZM857.906 130.36C855.246 130.36 853.342 128.624 853.342 126.076C853.342 123.556 855.246 121.848 857.906 121.848C860.538 121.848 862.442 123.556 862.442 126.076C862.442 128.624 860.538 130.36 857.906 130.36ZM878.562 134H882.202V114.4H878.562V134ZM895.651 118.88C893.467 118.88 891.647 119.608 890.499 120.98V119.048H887.167V134H890.667V126.44C890.667 123.444 892.347 121.932 894.839 121.932C897.079 121.932 898.395 123.22 898.395 125.88V134H901.895V125.432C901.895 120.924 899.235 118.88 895.651 118.88ZM916.702 119.048L911.914 130.136L907.266 119.048H903.626L910.038 134H913.65L920.062 119.048H916.702ZM924.013 116.584C925.329 116.584 926.253 115.632 926.253 114.4C926.253 113.252 925.301 112.384 924.013 112.384C922.725 112.384 921.773 113.308 921.773 114.484C921.773 115.66 922.725 116.584 924.013 116.584ZM922.249 134H925.749V119.048H922.249V134ZM938.351 130.696C937.819 131.116 937.119 131.312 936.391 131.312C935.047 131.312 934.319 130.528 934.319 129.072V121.96H938.323V119.16H934.319V115.744H930.819V119.16H928.355V121.96H930.819V129.156C930.819 132.46 932.695 134.196 935.971 134.196C937.231 134.196 938.491 133.86 939.331 133.188L938.351 130.696ZM947.922 118.88C945.514 118.88 943.19 119.496 941.594 120.728L942.966 123.276C944.086 122.352 945.822 121.792 947.502 121.792C949.994 121.792 951.226 122.996 951.226 125.04V125.264H947.362C942.826 125.264 941.146 127.224 941.146 129.716C941.146 132.32 943.302 134.196 946.718 134.196C948.958 134.196 950.582 133.468 951.422 132.18V134H954.726V125.236C954.726 120.924 952.234 118.88 947.922 118.88ZM947.446 131.648C945.654 131.648 944.59 130.836 944.59 129.576C944.59 128.484 945.234 127.588 947.614 127.588H951.226V129.324C950.638 130.864 949.154 131.648 947.446 131.648ZM967.226 130.696C966.694 131.116 965.994 131.312 965.266 131.312C963.922 131.312 963.194 130.528 963.194 129.072V121.96H967.198V119.16H963.194V115.744H959.694V119.16H957.23V121.96H959.694V129.156C959.694 132.46 961.57 134.196 964.846 134.196C966.106 134.196 967.366 133.86 968.206 133.188L967.226 130.696ZM972.849 116.584C974.165 116.584 975.089 115.632 975.089 114.4C975.089 113.252 974.137 112.384 972.849 112.384C971.561 112.384 970.609 113.308 970.609 114.484C970.609 115.66 971.561 116.584 972.849 116.584ZM971.085 134H974.585V119.048H971.085V134ZM985.899 134.196C990.547 134.196 993.879 131.004 993.879 126.524C993.879 122.044 990.547 118.88 985.899 118.88C981.307 118.88 977.947 122.044 977.947 126.524C977.947 131.004 981.307 134.196 985.899 134.196ZM985.899 131.2C983.379 131.2 981.475 129.38 981.475 126.524C981.475 123.668 983.379 121.848 985.899 121.848C988.447 121.848 990.351 123.668 990.351 126.524C990.351 129.38 988.447 131.2 985.899 131.2ZM1005.71 118.88C1003.53 118.88 1001.71 119.608 1000.56 120.98V119.048H997.226V134H1000.73V126.44C1000.73 123.444 1002.41 121.932 1004.9 121.932C1007.14 121.932 1008.45 123.22 1008.45 125.88V134H1011.95V125.432C1011.95 120.924 1009.29 118.88 1005.71 118.88Z" fill="white"/>
<path d="M736.68 182H744.344V180.608H738.28V170.8H736.68V182ZM749.479 182.096C752.023 182.096 753.879 180.288 753.879 177.76C753.879 175.232 752.023 173.44 749.479 173.44C746.935 173.44 745.063 175.232 745.063 177.76C745.063 180.288 746.935 182.096 749.479 182.096ZM749.479 180.752C747.847 180.752 746.615 179.568 746.615 177.76C746.615 175.952 747.847 174.784 749.479 174.784C751.111 174.784 752.327 175.952 752.327 177.76C752.327 179.568 751.111 180.752 749.479 180.752ZM757.475 174.944V173.52H756.003V182H757.539V177.776C757.539 175.92 758.563 174.912 760.211 174.912C760.323 174.912 760.435 174.912 760.563 174.928V173.44C759.075 173.44 758.019 173.952 757.475 174.944ZM770.042 177.808C770.042 175.2 768.298 173.44 765.85 173.44C763.402 173.44 761.594 175.248 761.594 177.76C761.594 180.288 763.418 182.096 766.154 182.096C767.562 182.096 768.73 181.616 769.498 180.72L768.65 179.728C768.026 180.416 767.194 180.752 766.202 180.752C764.522 180.752 763.322 179.76 763.13 178.272H770.01C770.026 178.128 770.042 177.936 770.042 177.808ZM765.85 174.736C767.338 174.736 768.41 175.744 768.57 177.168H763.13C763.29 175.728 764.378 174.736 765.85 174.736ZM782.783 173.44C781.343 173.44 780.159 174.048 779.519 175.008C778.959 173.952 777.871 173.44 776.575 173.44C775.295 173.44 774.255 173.92 773.647 174.784V173.52H772.175V182H773.711V177.632C773.711 175.792 774.719 174.816 776.255 174.816C777.647 174.816 778.447 175.632 778.447 177.296V182H779.983V177.632C779.983 175.792 780.991 174.816 782.527 174.816C783.919 174.816 784.719 175.632 784.719 177.296V182H786.255V177.12C786.255 174.624 784.847 173.44 782.783 173.44ZM794.146 171.888C794.754 171.888 795.186 171.44 795.186 170.864C795.186 170.32 794.738 169.888 794.146 169.888C793.554 169.888 793.106 170.336 793.106 170.896C793.106 171.456 793.554 171.888 794.146 171.888ZM793.378 182H794.914V173.52H793.378V182ZM802.343 173.44C801.095 173.44 800.007 173.92 799.319 174.864V173.52H797.847V185.104H799.383V180.72C800.087 181.632 801.143 182.096 802.343 182.096C804.823 182.096 806.631 180.368 806.631 177.76C806.631 175.168 804.823 173.44 802.343 173.44ZM802.215 180.752C800.599 180.752 799.367 179.568 799.367 177.76C799.367 175.968 800.599 174.784 802.215 174.784C803.847 174.784 805.079 175.968 805.079 177.76C805.079 179.568 803.847 180.752 802.215 180.752ZM811.185 182.096C813.441 182.096 814.849 181.12 814.849 179.584C814.849 176.288 809.473 177.92 809.473 175.92C809.473 175.248 810.129 174.752 811.473 174.752C812.305 174.752 813.153 174.928 813.921 175.424L814.577 174.208C813.841 173.728 812.593 173.44 811.489 173.44C809.313 173.44 807.953 174.464 807.953 175.984C807.953 179.36 813.313 177.712 813.313 179.616C813.313 180.336 812.721 180.768 811.297 180.768C810.193 180.768 809.041 180.4 808.321 179.888L807.681 181.104C808.385 181.664 809.777 182.096 811.185 182.096ZM823.137 173.52V177.904C823.137 179.728 822.113 180.72 820.513 180.72C819.057 180.72 818.225 179.888 818.225 178.224V173.52H816.689V178.4C816.689 180.896 818.145 182.096 820.337 182.096C821.537 182.096 822.593 181.6 823.217 180.72V182H824.673V173.52H823.137ZM838.205 173.44C836.765 173.44 835.581 174.048 834.941 175.008C834.381 173.952 833.293 173.44 831.997 173.44C830.717 173.44 829.677 173.92 829.069 174.784V173.52H827.597V182H829.133V177.632C829.133 175.792 830.141 174.816 831.677 174.816C833.069 174.816 833.869 175.632 833.869 177.296V182H835.405V177.632C835.405 175.792 836.413 174.816 837.949 174.816C839.341 174.816 840.141 175.632 840.141 177.296V182H841.677V177.12C841.677 174.624 840.269 173.44 838.205 173.44ZM855.264 170.128V174.8C854.56 173.888 853.504 173.44 852.304 173.44C849.824 173.44 848.016 175.168 848.016 177.76C848.016 180.352 849.824 182.096 852.304 182.096C853.552 182.096 854.64 181.616 855.328 180.656V182H856.8V170.128H855.264ZM852.432 180.752C850.8 180.752 849.568 179.568 849.568 177.76C849.568 175.952 850.8 174.784 852.432 174.784C854.048 174.784 855.28 175.952 855.28 177.76C855.28 179.568 854.048 180.752 852.432 180.752ZM863.338 182.096C865.882 182.096 867.738 180.288 867.738 177.76C867.738 175.232 865.882 173.44 863.338 173.44C860.794 173.44 858.922 175.232 858.922 177.76C858.922 180.288 860.794 182.096 863.338 182.096ZM863.338 180.752C861.706 180.752 860.474 179.568 860.474 177.76C860.474 175.952 861.706 174.784 863.338 174.784C864.97 174.784 866.186 175.952 866.186 177.76C866.186 179.568 864.97 180.752 863.338 180.752ZM869.862 182H871.398V170.128H869.862V182ZM877.963 182.096C880.507 182.096 882.363 180.288 882.363 177.76C882.363 175.232 880.507 173.44 877.963 173.44C875.419 173.44 873.547 175.232 873.547 177.76C873.547 180.288 875.419 182.096 877.963 182.096ZM877.963 180.752C876.331 180.752 875.099 179.568 875.099 177.76C875.099 175.952 876.331 174.784 877.963 174.784C879.595 174.784 880.811 175.952 880.811 177.76C880.811 179.568 879.595 180.752 877.963 180.752ZM885.959 174.944V173.52H884.487V182H886.023V177.776C886.023 175.92 887.047 174.912 888.695 174.912C888.807 174.912 888.919 174.912 889.047 174.928V173.44C887.559 173.44 886.503 173.952 885.959 174.944ZM897.779 182.096C900.035 182.096 901.443 181.12 901.443 179.584C901.443 176.288 896.067 177.92 896.067 175.92C896.067 175.248 896.723 174.752 898.067 174.752C898.899 174.752 899.747 174.928 900.515 175.424L901.171 174.208C900.435 173.728 899.187 173.44 898.083 173.44C895.907 173.44 894.547 174.464 894.547 175.984C894.547 179.36 899.907 177.712 899.907 179.616C899.907 180.336 899.315 180.768 897.891 180.768C896.787 180.768 895.635 180.4 894.915 179.888L894.275 181.104C894.979 181.664 896.371 182.096 897.779 182.096ZM904.13 171.888C904.738 171.888 905.17 171.44 905.17 170.864C905.17 170.32 904.722 169.888 904.13 169.888C903.538 169.888 903.09 170.336 903.09 170.896C903.09 171.456 903.538 171.888 904.13 171.888ZM903.362 182H904.898V173.52H903.362V182ZM912.119 180.4C911.799 180.656 911.367 180.8 910.919 180.8C910.071 180.8 909.591 180.288 909.591 179.376V174.784H912.023V173.52H909.591V171.664H908.055V173.52H906.615V174.784H908.055V179.44C908.055 181.152 909.031 182.096 910.743 182.096C911.431 182.096 912.135 181.904 912.599 181.504L912.119 180.4ZM921.841 173.44C920.481 173.44 919.217 173.824 918.337 174.528L918.977 175.68C919.633 175.12 920.657 174.768 921.665 174.768C923.185 174.768 923.937 175.52 923.937 176.816V177.12H921.505C918.977 177.12 918.097 178.24 918.097 179.6C918.097 181.072 919.313 182.096 921.233 182.096C922.561 182.096 923.505 181.648 924.017 180.88V182H925.473V176.88C925.473 174.56 924.161 173.44 921.841 173.44ZM921.489 180.912C920.321 180.912 919.617 180.384 919.617 179.536C919.617 178.816 920.049 178.224 921.569 178.224H923.937V179.408C923.553 180.384 922.641 180.912 921.489 180.912ZM938.923 173.44C937.483 173.44 936.299 174.048 935.659 175.008C935.099 173.952 934.011 173.44 932.715 173.44C931.435 173.44 930.395 173.92 929.787 174.784V173.52H928.315V182H929.851V177.632C929.851 175.792 930.859 174.816 932.395 174.816C933.787 174.816 934.587 175.632 934.587 177.296V182H936.123V177.632C936.123 175.792 937.131 174.816 938.667 174.816C940.059 174.816 940.859 175.632 940.859 177.296V182H942.395V177.12C942.395 174.624 940.987 173.44 938.923 173.44ZM952.933 177.808C952.933 175.2 951.189 173.44 948.741 173.44C946.293 173.44 944.485 175.248 944.485 177.76C944.485 180.288 946.309 182.096 949.045 182.096C950.453 182.096 951.621 181.616 952.389 180.72L951.541 179.728C950.917 180.416 950.085 180.752 949.093 180.752C947.413 180.752 946.213 179.76 946.021 178.272H952.901C952.917 178.128 952.933 177.936 952.933 177.808ZM948.741 174.736C950.229 174.736 951.301 175.744 951.461 177.168H946.021C946.181 175.728 947.269 174.736 948.741 174.736ZM959.353 180.4C959.033 180.656 958.601 180.8 958.153 180.8C957.305 180.8 956.825 180.288 956.825 179.376V174.784H959.257V173.52H956.825V171.664H955.289V173.52H953.849V174.784H955.289V179.44C955.289 181.152 956.265 182.096 957.977 182.096C958.665 182.096 959.369 181.904 959.833 181.504L959.353 180.4ZM962.231 179.904C961.623 179.904 961.159 180.352 961.159 180.992C961.159 181.472 961.431 181.84 961.831 181.984L961.239 184.368H962.247L962.999 182.144C963.207 181.552 963.271 181.312 963.271 180.992C963.271 180.368 962.839 179.904 962.231 179.904ZM973.465 182.096C974.985 182.096 976.249 181.456 976.921 180.272L975.753 179.536C975.209 180.368 974.377 180.752 973.449 180.752C971.785 180.752 970.537 179.6 970.537 177.76C970.537 175.952 971.785 174.784 973.449 174.784C974.377 174.784 975.209 175.168 975.753 176L976.921 175.248C976.249 174.064 974.985 173.44 973.465 173.44C970.857 173.44 968.985 175.232 968.985 177.76C968.985 180.288 970.857 182.096 973.465 182.096ZM982.416 182.096C984.96 182.096 986.816 180.288 986.816 177.76C986.816 175.232 984.96 173.44 982.416 173.44C979.872 173.44 978 175.232 978 177.76C978 180.288 979.872 182.096 982.416 182.096ZM982.416 180.752C980.784 180.752 979.552 179.568 979.552 177.76C979.552 175.952 980.784 174.784 982.416 174.784C984.048 174.784 985.264 175.952 985.264 177.76C985.264 179.568 984.048 180.752 982.416 180.752ZM993.468 173.44C992.124 173.44 991.036 173.936 990.412 174.8V173.52H988.94V182H990.476V177.632C990.476 175.792 991.532 174.816 993.164 174.816C994.62 174.816 995.452 175.632 995.452 177.296V182H996.988V177.12C996.988 174.624 995.532 173.44 993.468 173.44ZM1002.26 182.096C1004.52 182.096 1005.93 181.12 1005.93 179.584C1005.93 176.288 1000.55 177.92 1000.55 175.92C1000.55 175.248 1001.21 174.752 1002.55 174.752C1003.38 174.752 1004.23 174.928 1005 175.424L1005.66 174.208C1004.92 173.728 1003.67 173.44 1002.57 173.44C1000.39 173.44 999.031 174.464 999.031 175.984C999.031 179.36 1004.39 177.712 1004.39 179.616C1004.39 180.336 1003.8 180.768 1002.38 180.768C1001.27 180.768 1000.12 180.4 999.399 179.888L998.759 181.104C999.463 181.664 1000.86 182.096 1002.26 182.096ZM1015.51 177.808C1015.51 175.2 1013.77 173.44 1011.32 173.44C1008.87 173.44 1007.06 175.248 1007.06 177.76C1007.06 180.288 1008.89 182.096 1011.62 182.096C1013.03 182.096 1014.2 181.616 1014.97 180.72L1014.12 179.728C1013.49 180.416 1012.66 180.752 1011.67 180.752C1009.99 180.752 1008.79 179.76 1008.6 178.272H1015.48C1015.49 178.128 1015.51 177.936 1015.51 177.808ZM1011.32 174.736C1012.81 174.736 1013.88 175.744 1014.04 177.168H1008.6C1008.76 175.728 1009.85 174.736 1011.32 174.736ZM1021.34 182.096C1022.86 182.096 1024.12 181.456 1024.8 180.272L1023.63 179.536C1023.08 180.368 1022.25 180.752 1021.32 180.752C1019.66 180.752 1018.41 179.6 1018.41 177.76C1018.41 175.952 1019.66 174.784 1021.32 174.784C1022.25 174.784 1023.08 175.168 1023.63 176L1024.8 175.248C1024.12 174.064 1022.86 173.44 1021.34 173.44C1018.73 173.44 1016.86 175.232 1016.86 177.76C1016.86 180.288 1018.73 182.096 1021.34 182.096ZM1031.18 180.4C1030.86 180.656 1030.43 180.8 1029.98 180.8C1029.13 180.8 1028.65 180.288 1028.65 179.376V174.784H1031.09V173.52H1028.65V171.664H1027.12V173.52H1025.68V174.784H1027.12V179.44C1027.12 181.152 1028.09 182.096 1029.81 182.096C1030.49 182.096 1031.2 181.904 1031.66 181.504L1031.18 180.4ZM1040.9 177.808C1040.9 175.2 1039.16 173.44 1036.71 173.44C1034.26 173.44 1032.45 175.248 1032.45 177.76C1032.45 180.288 1034.28 182.096 1037.01 182.096C1038.42 182.096 1039.59 181.616 1040.36 180.72L1039.51 179.728C1038.89 180.416 1038.05 180.752 1037.06 180.752C1035.38 180.752 1034.18 179.76 1033.99 178.272H1040.87C1040.89 178.128 1040.9 177.936 1040.9 177.808ZM1036.71 174.736C1038.2 174.736 1039.27 175.744 1039.43 177.168H1033.99C1034.15 175.728 1035.24 174.736 1036.71 174.736ZM1047.32 180.4C1047 180.656 1046.57 180.8 1046.12 180.8C1045.27 180.8 1044.79 180.288 1044.79 179.376V174.784H1047.23V173.52H1044.79V171.664H1043.26V173.52H1041.82V174.784H1043.26V179.44C1043.26 181.152 1044.23 182.096 1045.95 182.096C1046.63 182.096 1047.34 181.904 1047.8 181.504L1047.32 180.4ZM1056.03 173.52V177.904C1056.03 179.728 1055 180.72 1053.4 180.72C1051.95 180.72 1051.12 179.888 1051.12 178.224V173.52H1049.58V178.4C1049.58 180.896 1051.04 182.096 1053.23 182.096C1054.43 182.096 1055.48 181.6 1056.11 180.72V182H1057.56V173.52H1056.03ZM1061.96 174.944V173.52H1060.49V182H1062.02V177.776C1062.02 175.92 1063.05 174.912 1064.7 174.912C1064.81 174.912 1064.92 174.912 1065.05 174.928V173.44C1063.56 173.44 1062.5 173.952 1061.96 174.944ZM1074.43 173.44C1073.07 173.44 1071.81 173.824 1070.93 174.528L1071.57 175.68C1072.23 175.12 1073.25 174.768 1074.26 174.768C1075.78 174.768 1076.53 175.52 1076.53 176.816V177.12H1074.1C1071.57 177.12 1070.69 178.24 1070.69 179.6C1070.69 181.072 1071.91 182.096 1073.83 182.096C1075.15 182.096 1076.1 181.648 1076.61 180.88V182H1078.07V176.88C1078.07 174.56 1076.75 173.44 1074.43 173.44ZM1074.08 180.912C1072.91 180.912 1072.21 180.384 1072.21 179.536C1072.21 178.816 1072.64 178.224 1074.16 178.224H1076.53V179.408C1076.15 180.384 1075.23 180.912 1074.08 180.912ZM1087.42 170.128V174.8C1086.72 173.888 1085.66 173.44 1084.46 173.44C1081.98 173.44 1080.17 175.168 1080.17 177.76C1080.17 180.352 1081.98 182.096 1084.46 182.096C1085.71 182.096 1086.8 181.616 1087.48 180.656V182H1088.96V170.128H1087.42ZM1084.59 180.752C1082.96 180.752 1081.72 179.568 1081.72 177.76C1081.72 175.952 1082.96 174.784 1084.59 174.784C1086.2 174.784 1087.44 175.952 1087.44 177.76C1087.44 179.568 1086.2 180.752 1084.59 180.752ZM1092.63 171.888C1093.24 171.888 1093.67 171.44 1093.67 170.864C1093.67 170.32 1093.22 169.888 1092.63 169.888C1092.04 169.888 1091.59 170.336 1091.59 170.896C1091.59 171.456 1092.04 171.888 1092.63 171.888ZM1091.86 182H1093.4V173.52H1091.86V182ZM1100.83 173.44C1099.58 173.44 1098.49 173.92 1097.8 174.864V173.52H1096.33V185.104H1097.87V180.72C1098.57 181.632 1099.63 182.096 1100.83 182.096C1103.31 182.096 1105.12 180.368 1105.12 177.76C1105.12 175.168 1103.31 173.44 1100.83 173.44ZM1100.7 180.752C1099.08 180.752 1097.85 179.568 1097.85 177.76C1097.85 175.968 1099.08 174.784 1100.7 174.784C1102.33 174.784 1103.56 175.968 1103.56 177.76C1103.56 179.568 1102.33 180.752 1100.7 180.752ZM1108.01 171.888C1108.61 171.888 1109.05 171.44 1109.05 170.864C1109.05 170.32 1108.6 169.888 1108.01 169.888C1107.41 169.888 1106.97 170.336 1106.97 170.896C1106.97 171.456 1107.41 171.888 1108.01 171.888ZM1107.24 182H1108.77V173.52H1107.24V182ZM1114.14 182.096C1116.39 182.096 1117.8 181.12 1117.8 179.584C1117.8 176.288 1112.43 177.92 1112.43 175.92C1112.43 175.248 1113.08 174.752 1114.43 174.752C1115.26 174.752 1116.11 174.928 1116.87 175.424L1117.53 174.208C1116.79 173.728 1115.55 173.44 1114.44 173.44C1112.27 173.44 1110.91 174.464 1110.91 175.984C1110.91 179.36 1116.27 177.712 1116.27 179.616C1116.27 180.336 1115.67 180.768 1114.25 180.768C1113.15 180.768 1111.99 180.4 1111.27 179.888L1110.63 181.104C1111.34 181.664 1112.73 182.096 1114.14 182.096ZM1123.42 182.096C1124.94 182.096 1126.2 181.456 1126.87 180.272L1125.71 179.536C1125.16 180.368 1124.33 180.752 1123.4 180.752C1121.74 180.752 1120.49 179.6 1120.49 177.76C1120.49 175.952 1121.74 174.784 1123.4 174.784C1124.33 174.784 1125.16 175.168 1125.71 176L1126.87 175.248C1126.2 174.064 1124.94 173.44 1123.42 173.44C1120.81 173.44 1118.94 175.232 1118.94 177.76C1118.94 180.288 1120.81 182.096 1123.42 182.096ZM1129.63 171.888C1130.24 171.888 1130.67 171.44 1130.67 170.864C1130.67 170.32 1130.22 169.888 1129.63 169.888C1129.04 169.888 1128.59 170.336 1128.59 170.896C1128.59 171.456 1129.04 171.888 1129.63 171.888ZM1128.86 182H1130.4V173.52H1128.86V182ZM1137.86 173.44C1136.52 173.44 1135.43 173.936 1134.8 174.8V173.52H1133.33V182H1134.87V177.632C1134.87 175.792 1135.92 174.816 1137.56 174.816C1139.01 174.816 1139.84 175.632 1139.84 177.296V182H1141.38V177.12C1141.38 174.624 1139.92 173.44 1137.86 173.44ZM1150.92 173.52V174.832C1150.2 173.904 1149.05 173.44 1147.79 173.44C1145.34 173.44 1143.48 175.088 1143.48 177.536C1143.48 179.984 1145.34 181.648 1147.79 181.648C1149 181.648 1150.11 181.216 1150.84 180.336V181.008C1150.84 182.928 1149.93 183.856 1147.93 183.856C1146.68 183.856 1145.45 183.424 1144.67 182.752L1143.93 183.936C1144.86 184.768 1146.43 185.2 1147.98 185.2C1150.86 185.2 1152.38 183.84 1152.38 180.848V173.52H1150.92ZM1147.96 180.304C1146.25 180.304 1145.04 179.168 1145.04 177.536C1145.04 175.888 1146.25 174.784 1147.96 174.784C1149.66 174.784 1150.88 175.888 1150.88 177.536C1150.88 179.168 1149.66 180.304 1147.96 180.304ZM1167.28 177.808C1167.28 175.2 1165.53 173.44 1163.08 173.44C1160.64 173.44 1158.83 175.248 1158.83 177.76C1158.83 180.288 1160.65 182.096 1163.39 182.096C1164.8 182.096 1165.96 181.616 1166.73 180.72L1165.88 179.728C1165.26 180.416 1164.43 180.752 1163.44 180.752C1161.76 180.752 1160.56 179.76 1160.36 178.272H1167.24C1167.26 178.128 1167.28 177.936 1167.28 177.808ZM1163.08 174.736C1164.57 174.736 1165.64 175.744 1165.8 177.168H1160.36C1160.52 175.728 1161.61 174.736 1163.08 174.736ZM1169.41 182H1170.95V170.128H1169.41V182ZM1174.65 171.888C1175.25 171.888 1175.69 171.44 1175.69 170.864C1175.69 170.32 1175.24 169.888 1174.65 169.888C1174.05 169.888 1173.61 170.336 1173.61 170.896C1173.61 171.456 1174.05 171.888 1174.65 171.888ZM1173.88 182H1175.41V173.52H1173.88V182ZM1182.63 180.4C1182.31 180.656 1181.88 180.8 1181.43 180.8C1180.59 180.8 1180.11 180.288 1180.11 179.376V174.784H1182.54V173.52H1180.11V171.664H1178.57V173.52H1177.13V174.784H1178.57V179.44C1178.57 181.152 1179.55 182.096 1181.26 182.096C1181.95 182.096 1182.65 181.904 1183.11 181.504L1182.63 180.4ZM1185.5 182.096C1186.07 182.096 1186.55 181.632 1186.55 180.992C1186.55 180.352 1186.07 179.904 1185.5 179.904C1184.9 179.904 1184.41 180.352 1184.41 180.992C1184.41 181.632 1184.9 182.096 1185.5 182.096ZM1196.54 182.128C1199.5 182.128 1200.87 180.656 1200.87 178.944C1200.87 174.832 1194.09 176.544 1194.09 173.808C1194.09 172.832 1194.91 172.032 1196.81 172.032C1197.8 172.032 1198.91 172.32 1199.88 172.944L1200.41 171.664C1199.48 171.024 1198.12 170.672 1196.81 170.672C1193.87 170.672 1192.52 172.144 1192.52 173.872C1192.52 178.032 1199.31 176.304 1199.31 179.04C1199.31 180.016 1198.47 180.768 1196.54 180.768C1195.1 180.768 1193.67 180.224 1192.84 179.472L1192.25 180.72C1193.15 181.552 1194.83 182.128 1196.54 182.128ZM1203.76 171.888C1204.36 171.888 1204.8 171.44 1204.8 170.864C1204.8 170.32 1204.35 169.888 1203.76 169.888C1203.16 169.888 1202.72 170.336 1202.72 170.896C1202.72 171.456 1203.16 171.888 1203.76 171.888ZM1202.99 182H1204.52V173.52H1202.99V182ZM1211.74 180.4C1211.42 180.656 1210.99 180.8 1210.54 180.8C1209.7 180.8 1209.22 180.288 1209.22 179.376V174.784H1211.65V173.52H1209.22V171.664H1207.68V173.52H1206.24V174.784H1207.68V179.44C1207.68 181.152 1208.66 182.096 1210.37 182.096C1211.06 182.096 1211.76 181.904 1212.22 181.504L1211.74 180.4ZM1219.15 171.888C1219.75 171.888 1220.19 171.44 1220.19 170.864C1220.19 170.32 1219.74 169.888 1219.15 169.888C1218.55 169.888 1218.11 170.336 1218.11 170.896C1218.11 171.456 1218.55 171.888 1219.15 171.888ZM1218.38 182H1219.91V173.52H1218.38V182ZM1226.48 182.096C1229.02 182.096 1230.88 180.288 1230.88 177.76C1230.88 175.232 1229.02 173.44 1226.48 173.44C1223.93 173.44 1222.06 175.232 1222.06 177.76C1222.06 180.288 1223.93 182.096 1226.48 182.096ZM1226.48 180.752C1224.85 180.752 1223.61 179.568 1223.61 177.76C1223.61 175.952 1224.85 174.784 1226.48 174.784C1228.11 174.784 1229.33 175.952 1229.33 177.76C1229.33 179.568 1228.11 180.752 1226.48 180.752ZM744.12 197.808C744.12 195.2 742.376 193.44 739.928 193.44C737.48 193.44 735.672 195.248 735.672 197.76C735.672 200.288 737.496 202.096 740.232 202.096C741.64 202.096 742.808 201.616 743.576 200.72L742.728 199.728C742.104 200.416 741.272 200.752 740.28 200.752C738.6 200.752 737.4 199.76 737.208 198.272H744.088C744.104 198.128 744.12 197.936 744.12 197.808ZM739.928 194.736C741.416 194.736 742.488 195.744 742.648 197.168H737.208C737.368 195.728 738.456 194.736 739.928 194.736ZM752.621 193.52V197.904C752.621 199.728 751.597 200.72 749.997 200.72C748.541 200.72 747.709 199.888 747.709 198.224V193.52H746.173V198.4C746.173 200.896 747.629 202.096 749.821 202.096C751.021 202.096 752.077 201.6 752.701 200.72V202H754.157V193.52H752.621ZM757.849 191.888C758.457 191.888 758.889 191.44 758.889 190.864C758.889 190.32 758.441 189.888 757.849 189.888C757.257 189.888 756.809 190.336 756.809 190.896C756.809 191.456 757.257 191.888 757.849 191.888ZM757.081 202H758.617V193.52H757.081V202ZM763.982 202.096C766.238 202.096 767.646 201.12 767.646 199.584C767.646 196.288 762.27 197.92 762.27 195.92C762.27 195.248 762.926 194.752 764.27 194.752C765.102 194.752 765.95 194.928 766.718 195.424L767.374 194.208C766.638 193.728 765.39 193.44 764.286 193.44C762.11 193.44 760.75 194.464 760.75 195.984C760.75 199.36 766.11 197.712 766.11 199.616C766.11 200.336 765.518 200.768 764.094 200.768C762.99 200.768 761.838 200.4 761.118 199.888L760.478 201.104C761.182 201.664 762.574 202.096 763.982 202.096ZM780.173 193.44C778.733 193.44 777.549 194.048 776.909 195.008C776.349 193.952 775.261 193.44 773.965 193.44C772.685 193.44 771.645 193.92 771.037 194.784V193.52H769.565V202H771.101V197.632C771.101 195.792 772.109 194.816 773.645 194.816C775.037 194.816 775.837 195.632 775.837 197.296V202H777.373V197.632C777.373 195.792 778.381 194.816 779.917 194.816C781.309 194.816 782.109 195.632 782.109 197.296V202H783.645V197.12C783.645 194.624 782.237 193.44 780.173 193.44ZM790.151 202.096C792.695 202.096 794.551 200.288 794.551 197.76C794.551 195.232 792.695 193.44 790.151 193.44C787.607 193.44 785.735 195.232 785.735 197.76C785.735 200.288 787.607 202.096 790.151 202.096ZM790.151 200.752C788.519 200.752 787.287 199.568 787.287 197.76C787.287 195.952 788.519 194.784 790.151 194.784C791.783 194.784 792.999 195.952 792.999 197.76C792.999 199.568 791.783 200.752 790.151 200.752ZM803.139 190.128V194.8C802.435 193.888 801.379 193.44 800.179 193.44C797.699 193.44 795.891 195.168 795.891 197.76C795.891 200.352 797.699 202.096 800.179 202.096C801.427 202.096 802.515 201.616 803.203 200.656V202H804.675V190.128H803.139ZM800.307 200.752C798.675 200.752 797.443 199.568 797.443 197.76C797.443 195.952 798.675 194.784 800.307 194.784C801.923 194.784 803.155 195.952 803.155 197.76C803.155 199.568 801.923 200.752 800.307 200.752ZM807.949 202.096C808.525 202.096 809.005 201.632 809.005 200.992C809.005 200.352 808.525 199.904 807.949 199.904C807.357 199.904 806.861 200.352 806.861 200.992C806.861 201.632 807.357 202.096 807.949 202.096ZM820.367 202.128C823.327 202.128 825.103 200.416 825.103 197.168V190.8H823.551V197.104C823.551 199.584 822.399 200.704 820.383 200.704C818.367 200.704 817.231 199.584 817.231 197.104V190.8H815.631V197.168C815.631 200.416 817.423 202.128 820.367 202.128ZM832.447 200.4C832.127 200.656 831.695 200.8 831.247 200.8C830.399 200.8 829.919 200.288 829.919 199.376V194.784H832.351V193.52H829.919V191.664H828.383V193.52H826.943V194.784H828.383V199.44C828.383 201.152 829.359 202.096 831.071 202.096C831.759 202.096 832.463 201.904 832.927 201.504L832.447 200.4ZM849.689 193.44C848.249 193.44 847.065 194.048 846.425 195.008C845.865 193.952 844.777 193.44 843.481 193.44C842.201 193.44 841.161 193.92 840.553 194.784V193.52H839.081V202H840.617V197.632C840.617 195.792 841.625 194.816 843.161 194.816C844.553 194.816 845.353 195.632 845.353 197.296V202H846.889V197.632C846.889 195.792 847.897 194.816 849.433 194.816C850.825 194.816 851.625 195.632 851.625 197.296V202H853.161V197.12C853.161 194.624 851.753 193.44 849.689 193.44ZM859.666 202.096C862.21 202.096 864.066 200.288 864.066 197.76C864.066 195.232 862.21 193.44 859.666 193.44C857.122 193.44 855.25 195.232 855.25 197.76C855.25 200.288 857.122 202.096 859.666 202.096ZM859.666 200.752C858.034 200.752 856.802 199.568 856.802 197.76C856.802 195.952 858.034 194.784 859.666 194.784C861.298 194.784 862.514 195.952 862.514 197.76C862.514 199.568 861.298 200.752 859.666 200.752ZM867.662 194.944V193.52H866.19V202H867.726V197.776C867.726 195.92 868.75 194.912 870.398 194.912C870.51 194.912 870.622 194.912 870.75 194.928V193.44C869.262 193.44 868.206 193.952 867.662 194.944ZM877.14 193.44C875.94 193.44 874.884 193.888 874.18 194.8V190.128H872.644V202H874.116V200.656C874.804 201.616 875.891 202.096 877.14 202.096C879.62 202.096 881.428 200.352 881.428 197.76C881.428 195.168 879.62 193.44 877.14 193.44ZM877.012 200.752C875.396 200.752 874.164 199.568 874.164 197.76C874.164 195.952 875.396 194.784 877.012 194.784C878.644 194.784 879.876 195.952 879.876 197.76C879.876 199.568 878.644 200.752 877.012 200.752ZM884.318 191.888C884.926 191.888 885.358 191.44 885.358 190.864C885.358 190.32 884.91 189.888 884.318 189.888C883.726 189.888 883.278 190.336 883.278 190.896C883.278 191.456 883.726 191.888 884.318 191.888ZM883.55 202H885.086V193.52H883.55V202ZM892.315 202H893.851V190.128H892.315V202ZM900.416 202.096C902.96 202.096 904.816 200.288 904.816 197.76C904.816 195.232 902.96 193.44 900.416 193.44C897.872 193.44 896 195.232 896 197.76C896 200.288 897.872 202.096 900.416 202.096ZM900.416 200.752C898.784 200.752 897.552 199.568 897.552 197.76C897.552 195.952 898.784 194.784 900.416 194.784C902.048 194.784 903.264 195.952 903.264 197.76C903.264 199.568 902.048 200.752 900.416 200.752ZM908.412 194.944V193.52H906.94V202H908.476V197.776C908.476 195.92 909.5 194.912 911.148 194.912C911.26 194.912 911.372 194.912 911.5 194.928V193.44C910.012 193.44 908.956 193.952 908.412 194.944ZM920.979 197.808C920.979 195.2 919.235 193.44 916.787 193.44C914.339 193.44 912.531 195.248 912.531 197.76C912.531 200.288 914.355 202.096 917.091 202.096C918.499 202.096 919.667 201.616 920.435 200.72L919.587 199.728C918.963 200.416 918.131 200.752 917.139 200.752C915.459 200.752 914.259 199.76 914.067 198.272H920.947C920.963 198.128 920.979 197.936 920.979 197.808ZM916.787 194.736C918.275 194.736 919.347 195.744 919.507 197.168H914.067C914.227 195.728 915.315 194.736 916.787 194.736ZM933.72 193.44C932.28 193.44 931.096 194.048 930.456 195.008C929.896 193.952 928.808 193.44 927.512 193.44C926.232 193.44 925.192 193.92 924.584 194.784V193.52H923.112V202H924.648V197.632C924.648 195.792 925.656 194.816 927.192 194.816C928.584 194.816 929.384 195.632 929.384 197.296V202H930.92V197.632C930.92 195.792 931.928 194.816 933.464 194.816C934.856 194.816 935.656 195.632 935.656 197.296V202H937.192V197.12C937.192 194.624 935.784 193.44 933.72 193.44ZM947.419 191.296C947.867 191.296 948.283 191.456 948.603 191.696L949.067 190.528C948.635 190.192 947.995 190.032 947.339 190.032C945.531 190.032 944.539 191.12 944.539 192.768V193.52H943.099V194.784H944.539V202H946.075V194.784H948.507V193.52H946.043V192.784C946.043 191.808 946.507 191.296 947.419 191.296ZM957.495 197.808C957.495 195.2 955.751 193.44 953.303 193.44C950.855 193.44 949.047 195.248 949.047 197.76C949.047 200.288 950.871 202.096 953.607 202.096C955.015 202.096 956.183 201.616 956.951 200.72L956.103 199.728C955.479 200.416 954.647 200.752 953.655 200.752C951.975 200.752 950.775 199.76 950.583 198.272H957.463C957.479 198.128 957.495 197.936 957.495 197.808ZM953.303 194.736C954.791 194.736 955.863 195.744 956.023 197.168H950.583C950.743 195.728 951.831 194.736 953.303 194.736ZM961.1 194.944V193.52H959.628V202H961.164V197.776C961.164 195.92 962.188 194.912 963.836 194.912C963.948 194.912 964.06 194.912 964.188 194.928V193.44C962.7 193.44 961.644 193.952 961.1 194.944ZM976.689 193.44C975.249 193.44 974.065 194.048 973.425 195.008C972.865 193.952 971.777 193.44 970.481 193.44C969.201 193.44 968.161 193.92 967.553 194.784V193.52H966.081V202H967.617V197.632C967.617 195.792 968.625 194.816 970.161 194.816C971.553 194.816 972.353 195.632 972.353 197.296V202H973.889V197.632C973.889 195.792 974.897 194.816 976.433 194.816C977.825 194.816 978.625 195.632 978.625 197.296V202H980.161V197.12C980.161 194.624 978.753 193.44 976.689 193.44ZM990.698 197.808C990.698 195.2 988.954 193.44 986.506 193.44C984.058 193.44 982.25 195.248 982.25 197.76C982.25 200.288 984.074 202.096 986.81 202.096C988.218 202.096 989.386 201.616 990.154 200.72L989.306 199.728C988.682 200.416 987.85 200.752 986.858 200.752C985.178 200.752 983.978 199.76 983.786 198.272H990.666C990.682 198.128 990.698 197.936 990.698 197.808ZM986.506 194.736C987.994 194.736 989.066 195.744 989.226 197.168H983.786C983.946 195.728 985.034 194.736 986.506 194.736ZM997.359 193.44C996.015 193.44 994.927 193.936 994.303 194.8V193.52H992.831V202H994.367V197.632C994.367 195.792 995.423 194.816 997.055 194.816C998.511 194.816 999.343 195.632 999.343 197.296V202H1000.88V197.12C1000.88 194.624 999.423 193.44 997.359 193.44ZM1008.01 200.4C1007.69 200.656 1007.26 200.8 1006.81 200.8C1005.96 200.8 1005.48 200.288 1005.48 199.376V194.784H1007.91V193.52H1005.48V191.664H1003.95V193.52H1002.51V194.784H1003.95V199.44C1003.95 201.152 1004.92 202.096 1006.63 202.096C1007.32 202.096 1008.03 201.904 1008.49 201.504L1008.01 200.4ZM1016.71 193.52V197.904C1016.71 199.728 1015.69 200.72 1014.09 200.72C1012.63 200.72 1011.8 199.888 1011.8 198.224V193.52H1010.27V198.4C1010.27 200.896 1011.72 202.096 1013.91 202.096C1015.11 202.096 1016.17 201.6 1016.79 200.72V202H1018.25V193.52H1016.71ZM1031.78 193.44C1030.34 193.44 1029.16 194.048 1028.52 195.008C1027.96 193.952 1026.87 193.44 1025.57 193.44C1024.29 193.44 1023.25 193.92 1022.65 194.784V193.52H1021.17V202H1022.71V197.632C1022.71 195.792 1023.72 194.816 1025.25 194.816C1026.65 194.816 1027.45 195.632 1027.45 197.296V202H1028.98V197.632C1028.98 195.792 1029.99 194.816 1031.53 194.816C1032.92 194.816 1033.72 195.632 1033.72 197.296V202H1035.25V197.12C1035.25 194.624 1033.85 193.44 1031.78 193.44ZM1046.07 202.096C1047.59 202.096 1048.86 201.456 1049.53 200.272L1048.36 199.536C1047.82 200.368 1046.99 200.752 1046.06 200.752C1044.39 200.752 1043.15 199.6 1043.15 197.76C1043.15 195.952 1044.39 194.784 1046.06 194.784C1046.99 194.784 1047.82 195.168 1048.36 196L1049.53 195.248C1048.86 194.064 1047.59 193.44 1046.07 193.44C1043.47 193.44 1041.59 195.232 1041.59 197.76C1041.59 200.288 1043.47 202.096 1046.07 202.096ZM1055.03 202.096C1057.57 202.096 1059.43 200.288 1059.43 197.76C1059.43 195.232 1057.57 193.44 1055.03 193.44C1052.48 193.44 1050.61 195.232 1050.61 197.76C1050.61 200.288 1052.48 202.096 1055.03 202.096ZM1055.03 200.752C1053.39 200.752 1052.16 199.568 1052.16 197.76C1052.16 195.952 1053.39 194.784 1055.03 194.784C1056.66 194.784 1057.87 195.952 1057.87 197.76C1057.87 199.568 1056.66 200.752 1055.03 200.752ZM1066.08 193.44C1064.73 193.44 1063.65 193.936 1063.02 194.8V193.52H1061.55V202H1063.09V197.632C1063.09 195.792 1064.14 194.816 1065.77 194.816C1067.23 194.816 1068.06 195.632 1068.06 197.296V202H1069.6V197.12C1069.6 194.624 1068.14 193.44 1066.08 193.44ZM1074.87 202.096C1077.13 202.096 1078.54 201.12 1078.54 199.584C1078.54 196.288 1073.16 197.92 1073.16 195.92C1073.16 195.248 1073.82 194.752 1075.16 194.752C1075.99 194.752 1076.84 194.928 1077.61 195.424L1078.26 194.208C1077.53 193.728 1076.28 193.44 1075.18 193.44C1073 193.44 1071.64 194.464 1071.64 195.984C1071.64 199.36 1077 197.712 1077 199.616C1077 200.336 1076.41 200.768 1074.98 200.768C1073.88 200.768 1072.73 200.4 1072.01 199.888L1071.37 201.104C1072.07 201.664 1073.46 202.096 1074.87 202.096ZM1088.12 197.808C1088.12 195.2 1086.38 193.44 1083.93 193.44C1081.48 193.44 1079.67 195.248 1079.67 197.76C1079.67 200.288 1081.5 202.096 1084.23 202.096C1085.64 202.096 1086.81 201.616 1087.58 200.72L1086.73 199.728C1086.1 200.416 1085.27 200.752 1084.28 200.752C1082.6 200.752 1081.4 199.76 1081.21 198.272H1088.09C1088.1 198.128 1088.12 197.936 1088.12 197.808ZM1083.93 194.736C1085.42 194.736 1086.49 195.744 1086.65 197.168H1081.21C1081.37 195.728 1082.46 194.736 1083.93 194.736ZM1093.95 202.096C1095.47 202.096 1096.73 201.456 1097.4 200.272L1096.24 199.536C1095.69 200.368 1094.86 200.752 1093.93 200.752C1092.27 200.752 1091.02 199.6 1091.02 197.76C1091.02 195.952 1092.27 194.784 1093.93 194.784C1094.86 194.784 1095.69 195.168 1096.24 196L1097.4 195.248C1096.73 194.064 1095.47 193.44 1093.95 193.44C1091.34 193.44 1089.47 195.232 1089.47 197.76C1089.47 200.288 1091.34 202.096 1093.95 202.096ZM1103.79 200.4C1103.47 200.656 1103.04 200.8 1102.59 200.8C1101.74 200.8 1101.26 200.288 1101.26 199.376V194.784H1103.69V193.52H1101.26V191.664H1099.73V193.52H1098.29V194.784H1099.73V199.44C1099.73 201.152 1100.7 202.096 1102.41 202.096C1103.1 202.096 1103.81 201.904 1104.27 201.504L1103.79 200.4ZM1113.51 197.808C1113.51 195.2 1111.77 193.44 1109.32 193.44C1106.87 193.44 1105.06 195.248 1105.06 197.76C1105.06 200.288 1106.89 202.096 1109.62 202.096C1111.03 202.096 1112.2 201.616 1112.97 200.72L1112.12 199.728C1111.49 200.416 1110.66 200.752 1109.67 200.752C1107.99 200.752 1106.79 199.76 1106.6 198.272H1113.48C1113.49 198.128 1113.51 197.936 1113.51 197.808ZM1109.32 194.736C1110.81 194.736 1111.88 195.744 1112.04 197.168H1106.6C1106.76 195.728 1107.85 194.736 1109.32 194.736ZM1119.93 200.4C1119.61 200.656 1119.18 200.8 1118.73 200.8C1117.88 200.8 1117.4 200.288 1117.4 199.376V194.784H1119.84V193.52H1117.4V191.664H1115.87V193.52H1114.43V194.784H1115.87V199.44C1115.87 201.152 1116.84 202.096 1118.56 202.096C1119.24 202.096 1119.95 201.904 1120.41 201.504L1119.93 200.4ZM1128.64 193.52V197.904C1128.64 199.728 1127.61 200.72 1126.01 200.72C1124.56 200.72 1123.72 199.888 1123.72 198.224V193.52H1122.19V198.4C1122.19 200.896 1123.64 202.096 1125.84 202.096C1127.04 202.096 1128.09 201.6 1128.72 200.72V202H1130.17V193.52H1128.64ZM1134.57 194.944V193.52H1133.1V202H1134.63V197.776C1134.63 195.92 1135.66 194.912 1137.3 194.912C1137.42 194.912 1137.53 194.912 1137.66 194.928V193.44C1136.17 193.44 1135.11 193.952 1134.57 194.944ZM1148.45 193.44C1147.2 193.44 1146.12 193.92 1145.43 194.864V193.52H1143.96V205.104H1145.49V200.72C1146.2 201.632 1147.25 202.096 1148.45 202.096C1150.93 202.096 1152.74 200.368 1152.74 197.76C1152.74 195.168 1150.93 193.44 1148.45 193.44ZM1148.32 200.752C1146.71 200.752 1145.48 199.568 1145.48 197.76C1145.48 195.968 1146.71 194.784 1148.32 194.784C1149.96 194.784 1151.19 195.968 1151.19 197.76C1151.19 199.568 1149.96 200.752 1148.32 200.752ZM1162.53 197.808C1162.53 195.2 1160.78 193.44 1158.33 193.44C1155.89 193.44 1154.08 195.248 1154.08 197.76C1154.08 200.288 1155.9 202.096 1158.64 202.096C1160.05 202.096 1161.21 201.616 1161.98 200.72L1161.13 199.728C1160.51 200.416 1159.68 200.752 1158.69 200.752C1157.01 200.752 1155.81 199.76 1155.61 198.272H1162.49C1162.51 198.128 1162.53 197.936 1162.53 197.808ZM1158.33 194.736C1159.82 194.736 1160.89 195.744 1161.05 197.168H1155.61C1155.77 195.728 1156.86 194.736 1158.33 194.736ZM1164.66 202H1166.2V190.128H1164.66V202ZM1173.66 193.44C1172.31 193.44 1171.22 193.936 1170.6 194.8V193.52H1169.13V202H1170.66V197.632C1170.66 195.792 1171.72 194.816 1173.35 194.816C1174.81 194.816 1175.64 195.632 1175.64 197.296V202H1177.18V197.12C1177.18 194.624 1175.72 193.44 1173.66 193.44ZM1184.31 200.4C1183.99 200.656 1183.55 200.8 1183.11 200.8C1182.26 200.8 1181.78 200.288 1181.78 199.376V194.784H1184.21V193.52H1181.78V191.664H1180.24V193.52H1178.8V194.784H1180.24V199.44C1180.24 201.152 1181.22 202.096 1182.93 202.096C1183.62 202.096 1184.32 201.904 1184.79 201.504L1184.31 200.4ZM1194.03 197.808C1194.03 195.2 1192.28 193.44 1189.83 193.44C1187.39 193.44 1185.58 195.248 1185.58 197.76C1185.58 200.288 1187.4 202.096 1190.14 202.096C1191.55 202.096 1192.71 201.616 1193.48 200.72L1192.63 199.728C1192.01 200.416 1191.18 200.752 1190.19 200.752C1188.51 200.752 1187.31 199.76 1187.11 198.272H1193.99C1194.01 198.128 1194.03 197.936 1194.03 197.808ZM1189.83 194.736C1191.32 194.736 1192.39 195.744 1192.55 197.168H1187.11C1187.27 195.728 1188.36 194.736 1189.83 194.736ZM1198.59 202.096C1200.85 202.096 1202.26 201.12 1202.26 199.584C1202.26 196.288 1196.88 197.92 1196.88 195.92C1196.88 195.248 1197.54 194.752 1198.88 194.752C1199.71 194.752 1200.56 194.928 1201.33 195.424L1201.98 194.208C1201.25 193.728 1200 193.44 1198.9 193.44C1196.72 193.44 1195.36 194.464 1195.36 195.984C1195.36 199.36 1200.72 197.712 1200.72 199.616C1200.72 200.336 1200.13 200.768 1198.7 200.768C1197.6 200.768 1196.45 200.4 1195.73 199.888L1195.09 201.104C1195.79 201.664 1197.18 202.096 1198.59 202.096ZM1210.7 193.52V194.864C1210.01 193.92 1208.93 193.44 1207.68 193.44C1205.2 193.44 1203.39 195.168 1203.39 197.76C1203.39 200.368 1205.2 202.096 1207.68 202.096C1208.88 202.096 1209.93 201.632 1210.64 200.72V205.104H1212.17V193.52H1210.7ZM1207.81 200.752C1206.17 200.752 1204.94 199.568 1204.94 197.76C1204.94 195.968 1206.17 194.784 1207.81 194.784C1209.42 194.784 1210.65 195.968 1210.65 197.76C1210.65 199.568 1209.42 200.752 1207.81 200.752ZM1221.45 193.52V197.904C1221.45 199.728 1220.43 200.72 1218.83 200.72C1217.37 200.72 1216.54 199.888 1216.54 198.224V193.52H1215V198.4C1215 200.896 1216.46 202.096 1218.65 202.096C1219.85 202.096 1220.91 201.6 1221.53 200.72V202H1222.99V193.52H1221.45ZM1233.57 197.808C1233.57 195.2 1231.83 193.44 1229.38 193.44C1226.93 193.44 1225.13 195.248 1225.13 197.76C1225.13 200.288 1226.95 202.096 1229.69 202.096C1231.09 202.096 1232.26 201.616 1233.03 200.72L1232.18 199.728C1231.56 200.416 1230.73 200.752 1229.73 200.752C1228.05 200.752 1226.85 199.76 1226.66 198.272H1233.54C1233.56 198.128 1233.57 197.936 1233.57 197.808ZM1229.38 194.736C1230.87 194.736 1231.94 195.744 1232.1 197.168H1226.66C1226.82 195.728 1227.91 194.736 1229.38 194.736ZM742.456 213.52L739.48 220.32L736.568 213.52H734.968L738.68 222H740.248L743.96 213.52H742.456ZM748.791 222.096C751.335 222.096 753.191 220.288 753.191 217.76C753.191 215.232 751.335 213.44 748.791 213.44C746.247 213.44 744.375 215.232 744.375 217.76C744.375 220.288 746.247 222.096 748.791 222.096ZM748.791 220.752C747.159 220.752 745.927 219.568 745.927 217.76C745.927 215.952 747.159 214.784 748.791 214.784C750.423 214.784 751.639 215.952 751.639 217.76C751.639 219.568 750.423 220.752 748.791 220.752ZM755.315 222H756.851V210.128H755.315V222ZM766.152 213.52V217.904C766.152 219.728 765.128 220.72 763.528 220.72C762.072 220.72 761.24 219.888 761.24 218.224V213.52H759.704V218.4C759.704 220.896 761.16 222.096 763.352 222.096C764.552 222.096 765.608 221.6 766.232 220.72V222H767.688V213.52H766.152ZM774.9 220.4C774.58 220.656 774.148 220.8 773.7 220.8C772.852 220.8 772.372 220.288 772.372 219.376V214.784H774.804V213.52H772.372V211.664H770.836V213.52H769.396V214.784H770.836V219.44C770.836 221.152 771.812 222.096 773.524 222.096C774.212 222.096 774.916 221.904 775.38 221.504L774.9 220.4ZM781.733 213.44C780.485 213.44 779.397 213.92 778.709 214.864V213.52H777.237V225.104H778.773V220.72C779.477 221.632 780.533 222.096 781.733 222.096C784.213 222.096 786.021 220.368 786.021 217.76C786.021 215.168 784.213 213.44 781.733 213.44ZM781.605 220.752C779.989 220.752 778.757 219.568 778.757 217.76C778.757 215.968 779.989 214.784 781.605 214.784C783.237 214.784 784.469 215.968 784.469 217.76C784.469 219.568 783.237 220.752 781.605 220.752ZM791.153 213.44C789.793 213.44 788.529 213.824 787.649 214.528L788.289 215.68C788.945 215.12 789.969 214.768 790.977 214.768C792.497 214.768 793.249 215.52 793.249 216.816V217.12H790.817C788.289 217.12 787.409 218.24 787.409 219.6C787.409 221.072 788.625 222.096 790.545 222.096C791.873 222.096 792.817 221.648 793.329 220.88V222H794.785V216.88C794.785 214.56 793.473 213.44 791.153 213.44ZM790.801 220.912C789.633 220.912 788.929 220.384 788.929 219.536C788.929 218.816 789.361 218.224 790.881 218.224H793.249V219.408C792.865 220.384 791.953 220.912 790.801 220.912ZM801.916 220.4C801.596 220.656 801.164 220.8 800.716 220.8C799.868 220.8 799.388 220.288 799.388 219.376V214.784H801.82V213.52H799.388V211.664H797.852V213.52H796.412V214.784H797.852V219.44C797.852 221.152 798.828 222.096 800.54 222.096C801.228 222.096 801.932 221.904 802.396 221.504L801.916 220.4ZM804.777 222.096C805.353 222.096 805.833 221.632 805.833 220.992C805.833 220.352 805.353 219.904 804.777 219.904C804.185 219.904 803.689 220.352 803.689 220.992C803.689 221.632 804.185 222.096 804.777 222.096ZM820.587 210.8V219.152L813.867 210.8H812.555V222H814.155V213.648L820.875 222H822.187V210.8H820.587ZM828.947 222.096C831.491 222.096 833.347 220.288 833.347 217.76C833.347 215.232 831.491 213.44 828.947 213.44C826.403 213.44 824.531 215.232 824.531 217.76C824.531 220.288 826.403 222.096 828.947 222.096ZM828.947 220.752C827.315 220.752 826.083 219.568 826.083 217.76C826.083 215.952 827.315 214.784 828.947 214.784C830.579 214.784 831.795 215.952 831.795 217.76C831.795 219.568 830.579 220.752 828.947 220.752ZM840 213.44C838.656 213.44 837.568 213.936 836.944 214.8V213.52H835.472V222H837.008V217.632C837.008 215.792 838.064 214.816 839.696 214.816C841.152 214.816 841.984 215.632 841.984 217.296V222H843.52V217.12C843.52 214.624 842.064 213.44 840 213.44ZM852.131 214.944V213.52H850.659V222H852.195V217.776C852.195 215.92 853.219 214.912 854.867 214.912C854.979 214.912 855.091 214.912 855.219 214.928V213.44C853.731 213.44 852.675 213.952 852.131 214.944ZM857.88 211.888C858.488 211.888 858.92 211.44 858.92 210.864C858.92 210.32 858.472 209.888 857.88 209.888C857.288 209.888 856.84 210.336 856.84 210.896C856.84 211.456 857.288 211.888 857.88 211.888ZM857.112 222H858.648V213.52H857.112V222ZM864.013 222.096C866.269 222.096 867.677 221.12 867.677 219.584C867.677 216.288 862.301 217.92 862.301 215.92C862.301 215.248 862.957 214.752 864.301 214.752C865.133 214.752 865.981 214.928 866.749 215.424L867.405 214.208C866.669 213.728 865.421 213.44 864.317 213.44C862.141 213.44 860.781 214.464 860.781 215.984C860.781 219.36 866.141 217.712 866.141 219.616C866.141 220.336 865.549 220.768 864.125 220.768C863.021 220.768 861.869 220.4 861.149 219.888L860.509 221.104C861.213 221.664 862.605 222.096 864.013 222.096ZM875.965 213.52V217.904C875.965 219.728 874.941 220.72 873.341 220.72C871.885 220.72 871.053 219.888 871.053 218.224V213.52H869.517V218.4C869.517 220.896 870.973 222.096 873.165 222.096C874.365 222.096 875.421 221.6 876.045 220.72V222H877.501V213.52H875.965ZM882.857 222.096C885.113 222.096 886.521 221.12 886.521 219.584C886.521 216.288 881.145 217.92 881.145 215.92C881.145 215.248 881.801 214.752 883.145 214.752C883.977 214.752 884.825 214.928 885.593 215.424L886.249 214.208C885.513 213.728 884.265 213.44 883.161 213.44C880.985 213.44 879.625 214.464 879.625 215.984C879.625 219.36 884.985 217.712 884.985 219.616C884.985 220.336 884.393 220.768 882.969 220.768C881.865 220.768 880.713 220.4 879.993 219.888L879.353 221.104C880.057 221.664 881.449 222.096 882.857 222.096ZM897.233 213.44C895.985 213.44 894.897 213.92 894.209 214.864V213.52H892.737V225.104H894.273V220.72C894.977 221.632 896.033 222.096 897.233 222.096C899.713 222.096 901.521 220.368 901.521 217.76C901.521 215.168 899.713 213.44 897.233 213.44ZM897.105 220.752C895.489 220.752 894.257 219.568 894.257 217.76C894.257 215.968 895.489 214.784 897.105 214.784C898.737 214.784 899.969 215.968 899.969 217.76C899.969 219.568 898.737 220.752 897.105 220.752ZM907.276 222.096C909.82 222.096 911.676 220.288 911.676 217.76C911.676 215.232 909.82 213.44 907.276 213.44C904.732 213.44 902.86 215.232 902.86 217.76C902.86 220.288 904.732 222.096 907.276 222.096ZM907.276 220.752C905.644 220.752 904.412 219.568 904.412 217.76C904.412 215.952 905.644 214.784 907.276 214.784C908.908 214.784 910.124 215.952 910.124 217.76C910.124 219.568 908.908 220.752 907.276 220.752ZM915.272 214.944V213.52H913.8V222H915.336V217.776C915.336 215.92 916.36 214.912 918.008 214.912C918.12 214.912 918.232 214.912 918.36 214.928V213.44C916.872 213.44 915.816 213.952 915.272 214.944ZM924.885 220.4C924.565 220.656 924.133 220.8 923.685 220.8C922.837 220.8 922.357 220.288 922.357 219.376V214.784H924.789V213.52H922.357V211.664H920.821V213.52H919.381V214.784H920.821V219.44C920.821 221.152 921.797 222.096 923.509 222.096C924.197 222.096 924.901 221.904 925.365 221.504L924.885 220.4ZM931.307 220.4C930.987 220.656 930.555 220.8 930.107 220.8C929.259 220.8 928.779 220.288 928.779 219.376V214.784H931.211V213.52H928.779V211.664H927.243V213.52H925.803V214.784H927.243V219.44C927.243 221.152 928.219 222.096 929.931 222.096C930.619 222.096 931.323 221.904 931.787 221.504L931.307 220.4ZM934.412 211.888C935.02 211.888 935.452 211.44 935.452 210.864C935.452 210.32 935.004 209.888 934.412 209.888C933.82 209.888 933.372 210.336 933.372 210.896C933.372 211.456 933.82 211.888 934.412 211.888ZM933.644 222H935.18V213.52H933.644V222ZM942.4 220.4C942.08 220.656 941.648 220.8 941.2 220.8C940.352 220.8 939.872 220.288 939.872 219.376V214.784H942.304V213.52H939.872V211.664H938.336V213.52H936.896V214.784H938.336V219.44C938.336 221.152 939.312 222.096 941.024 222.096C941.712 222.096 942.416 221.904 942.88 221.504L942.4 220.4ZM948.088 222.096C950.632 222.096 952.488 220.288 952.488 217.76C952.488 215.232 950.632 213.44 948.088 213.44C945.544 213.44 943.672 215.232 943.672 217.76C943.672 220.288 945.544 222.096 948.088 222.096ZM948.088 220.752C946.456 220.752 945.224 219.568 945.224 217.76C945.224 215.952 946.456 214.784 948.088 214.784C949.72 214.784 950.936 215.952 950.936 217.76C950.936 219.568 949.72 220.752 948.088 220.752ZM956.084 214.944V213.52H954.612V222H956.148V217.776C956.148 215.92 957.172 214.912 958.82 214.912C958.932 214.912 959.044 214.912 959.172 214.928V213.44C957.684 213.44 956.628 213.952 956.084 214.944ZM976.08 213.44C974.64 213.44 973.456 214.048 972.816 215.008C972.256 213.952 971.168 213.44 969.872 213.44C968.592 213.44 967.552 213.92 966.944 214.784V213.52H965.472V222H967.008V217.632C967.008 215.792 968.016 214.816 969.552 214.816C970.944 214.816 971.744 215.632 971.744 217.296V222H973.28V217.632C973.28 215.792 974.288 214.816 975.824 214.816C977.216 214.816 978.016 215.632 978.016 217.296V222H979.552V217.12C979.552 214.624 978.144 213.44 976.08 213.44ZM985.466 213.44C984.106 213.44 982.842 213.824 981.962 214.528L982.602 215.68C983.258 215.12 984.282 214.768 985.29 214.768C986.81 214.768 987.562 215.52 987.562 216.816V217.12H985.13C982.602 217.12 981.722 218.24 981.722 219.6C981.722 221.072 982.938 222.096 984.858 222.096C986.186 222.096 987.13 221.648 987.642 220.88V222H989.098V216.88C989.098 214.56 987.786 213.44 985.466 213.44ZM985.114 220.912C983.946 220.912 983.242 220.384 983.242 219.536C983.242 218.816 983.674 218.224 985.194 218.224H987.562V219.408C987.178 220.384 986.266 220.912 985.114 220.912ZM996.228 220.4C995.908 220.656 995.476 220.8 995.028 220.8C994.18 220.8 993.7 220.288 993.7 219.376V214.784H996.132V213.52H993.7V211.664H992.164V213.52H990.724V214.784H992.164V219.44C992.164 221.152 993.14 222.096 994.852 222.096C995.54 222.096 996.244 221.904 996.708 221.504L996.228 220.4ZM1002.65 220.4C1002.33 220.656 1001.9 220.8 1001.45 220.8C1000.6 220.8 1000.12 220.288 1000.12 219.376V214.784H1002.55V213.52H1000.12V211.664H998.586V213.52H997.146V214.784H998.586V219.44C998.586 221.152 999.562 222.096 1001.27 222.096C1001.96 222.096 1002.67 221.904 1003.13 221.504L1002.65 220.4ZM1005.76 211.888C1006.36 211.888 1006.8 211.44 1006.8 210.864C1006.8 210.32 1006.35 209.888 1005.76 209.888C1005.16 209.888 1004.72 210.336 1004.72 210.896C1004.72 211.456 1005.16 211.888 1005.76 211.888ZM1004.99 222H1006.52V213.52H1004.99V222ZM1011.89 222.096C1014.14 222.096 1015.55 221.12 1015.55 219.584C1015.55 216.288 1010.18 217.92 1010.18 215.92C1010.18 215.248 1010.83 214.752 1012.18 214.752C1013.01 214.752 1013.86 214.928 1014.62 215.424L1015.28 214.208C1014.54 213.728 1013.3 213.44 1012.19 213.44C1010.02 213.44 1008.66 214.464 1008.66 215.984C1008.66 219.36 1014.02 217.712 1014.02 219.616C1014.02 220.336 1013.42 220.768 1012 220.768C1010.9 220.768 1009.74 220.4 1009.02 219.888L1008.38 221.104C1009.09 221.664 1010.48 222.096 1011.89 222.096ZM1027.77 213.52L1024.79 220.32L1021.88 213.52H1020.28L1023.99 222H1025.56L1029.27 213.52H1027.77ZM1033.53 213.44C1032.17 213.44 1030.9 213.824 1030.02 214.528L1030.66 215.68C1031.32 215.12 1032.34 214.768 1033.35 214.768C1034.87 214.768 1035.62 215.52 1035.62 216.816V217.12H1033.19C1030.66 217.12 1029.78 218.24 1029.78 219.6C1029.78 221.072 1031 222.096 1032.92 222.096C1034.25 222.096 1035.19 221.648 1035.7 220.88V222H1037.16V216.88C1037.16 214.56 1035.85 213.44 1033.53 213.44ZM1033.18 220.912C1032.01 220.912 1031.3 220.384 1031.3 219.536C1031.3 218.816 1031.74 218.224 1033.26 218.224H1035.62V219.408C1035.24 220.384 1034.33 220.912 1033.18 220.912ZM1041.47 214.944V213.52H1040V222H1041.54V217.776C1041.54 215.92 1042.56 214.912 1044.21 214.912C1044.32 214.912 1044.43 214.912 1044.56 214.928V213.44C1043.07 213.44 1042.02 213.952 1041.47 214.944ZM1047.22 211.888C1047.83 211.888 1048.26 211.44 1048.26 210.864C1048.26 210.32 1047.82 209.888 1047.22 209.888C1046.63 209.888 1046.18 210.336 1046.18 210.896C1046.18 211.456 1046.63 211.888 1047.22 211.888ZM1046.46 222H1047.99V213.52H1046.46V222ZM1057.29 213.52V217.904C1057.29 219.728 1056.27 220.72 1054.67 220.72C1053.21 220.72 1052.38 219.888 1052.38 218.224V213.52H1050.84V218.4C1050.84 220.896 1052.3 222.096 1054.49 222.096C1055.69 222.096 1056.75 221.6 1057.37 220.72V222H1058.83V213.52H1057.29ZM1064.18 222.096C1066.44 222.096 1067.85 221.12 1067.85 219.584C1067.85 216.288 1062.47 217.92 1062.47 215.92C1062.47 215.248 1063.13 214.752 1064.47 214.752C1065.3 214.752 1066.15 214.928 1066.92 215.424L1067.58 214.208C1066.84 213.728 1065.59 213.44 1064.49 213.44C1062.31 213.44 1060.95 214.464 1060.95 215.984C1060.95 219.36 1066.31 217.712 1066.31 219.616C1066.31 220.336 1065.72 220.768 1064.3 220.768C1063.19 220.768 1062.04 220.4 1061.32 219.888L1060.68 221.104C1061.38 221.664 1062.78 222.096 1064.18 222.096ZM1070.14 222.096C1070.71 222.096 1071.19 221.632 1071.19 220.992C1071.19 220.352 1070.71 219.904 1070.14 219.904C1069.54 219.904 1069.05 220.352 1069.05 220.992C1069.05 221.632 1069.54 222.096 1070.14 222.096Z" fill="white"/>
<path d="M508 21H45V311H508V21Z" fill="#82BAC2"/>
<path opacity="0.12" d="M191.966 297.099C162.125 269.096 146.684 226.591 154.738 182.989C167.236 115.322 231.663 70.2531 298.354 82.5234C365.046 94.7937 409.133 159.824 396.631 227.491C391.49 255.323 377.562 279.33 358.307 297.1H407.864C420.366 278.761 429.358 257.553 433.653 234.301C449.981 145.918 392.398 60.9826 305.295 44.9594C218.192 28.9363 134.044 87.8001 117.716 176.18C109.623 219.992 119.694 262.951 142.517 297.099H191.966Z" fill="#E63349"/>
<path d="M153.405 182.017C149.026 182.948 141.999 181.781 135.064 178.97C127.296 175.821 120.791 171.209 116.749 165.984C112.46 160.501 110.124 153.749 110.112 146.793C110.08 141.505 111.355 137.824 111.365 137.787L111.704 137.905C111.692 137.942 110.438 141.576 110.471 146.805C110.502 153.674 112.809 160.34 117.033 165.764C121.038 170.94 127.489 175.509 135.199 178.637C142.071 181.422 149.018 182.582 153.33 181.665L153.405 182.017Z" fill="#4EB7A1"/>
<path d="M111.88 138.771C111.88 138.771 111.969 138.782 113.457 135.347C114.945 131.911 112.177 131.441 111.306 133.532C110.435 135.622 110.981 139.943 110.981 139.943L111.88 138.771Z" fill="#4EB7A1"/>
<path d="M110.303 145.741C110.303 145.741 106.821 140.983 106.808 143.065C106.794 145.147 110.303 145.741 110.303 145.741Z" fill="#4EB7A1"/>
<path d="M110.44 143.473C110.44 143.473 113.046 138.947 114.258 140.592C115.47 142.238 110.44 143.473 110.44 143.473Z" fill="#4EB7A1"/>
<path d="M110.938 152.748C110.938 152.748 102.883 141.068 103.327 146.916C103.708 152.031 110.938 152.748 110.938 152.748Z" fill="#4EB7A1"/>
<path d="M111.335 154.712C111.335 154.712 117.252 150.581 116.439 148.764C115.626 146.948 113.793 147.537 113.382 149.03C112.972 150.523 111.335 154.712 111.335 154.712Z" fill="#4EB7A1"/>
<path d="M105.797 158.106C105.797 158.106 106.304 153.446 112.399 158.689L113.146 159.733C113.146 159.733 106.079 160.211 105.797 158.106Z" fill="#4EB7A1"/>
<path d="M114.907 163.01C114.907 163.01 115.766 154.22 120.121 154.706C124.475 155.193 114.907 163.01 114.907 163.01Z" fill="#4EB7A1"/>
<path d="M117.514 166.649C117.514 166.649 112.181 162.406 109.628 164.309C107.075 166.212 110.059 167.67 112.695 168.036C115.332 168.402 118.667 167.96 118.667 167.96L117.514 166.649Z" fill="#4EB7A1"/>
<path d="M122.597 171.345C122.597 171.345 117.425 164.363 121.346 162.378C125.266 160.392 123.488 167.134 123.488 167.134C123.488 167.134 122.162 169.993 123.359 172.179L122.597 171.345Z" fill="#4EB7A1"/>
<path d="M154.701 191.917C149.607 194.486 144.157 196.546 138.94 197.868C134.732 198.931 130.683 199.539 126.847 199.674C125.409 199.726 124.002 199.711 122.627 199.629C116.876 199.289 111.381 197.962 106.292 195.683C102.179 193.833 98.3567 191.399 94.9434 188.456C89.0495 183.392 86.1944 178.444 86.1669 178.391L86.5016 178.201C86.53 178.25 89.3584 183.154 95.2017 188.174C100.595 192.804 109.733 198.482 122.645 199.248C132.272 199.818 143.596 197.093 154.522 191.577C164.268 186.656 159.532 189.479 154.701 191.917Z" fill="#4EB7A1"/>
<path d="M87.6948 178.807C87.6948 178.807 87.7933 178.718 85.415 173.757C83.0366 168.796 79.8398 171.4 81.3214 174.384C82.8031 177.368 88.1289 180.935 88.1289 180.935L87.6948 178.807Z" fill="#4EB7A1"/>
<path d="M93.9162 187.282C93.9162 187.282 85.2711 186.538 87.5704 188.564C89.8698 190.589 93.9162 187.282 93.9162 187.282Z" fill="#4EB7A1"/>
<path d="M91.5272 184.94C91.5272 184.94 89.0175 177.689 92.0164 177.934C95.0153 178.179 91.5272 184.94 91.5272 184.94Z" fill="#4EB7A1"/>
<path d="M102.311 193.346C102.311 193.346 81.5568 190.98 88.4787 196.139C94.5377 200.655 102.311 193.346 102.311 193.346Z" fill="#4EB7A1"/>
<path d="M104.876 194.803C104.876 194.803 106 184.269 103.198 183.413C100.396 182.558 99.2793 185.156 100.539 187.046C101.799 188.936 104.876 194.803 104.876 194.803Z" fill="#4EB7A1"/>
<path d="M103.296 204.207C103.296 204.207 98.6099 199.145 110.32 197.467L112.201 197.649C112.201 197.649 105.901 205.933 103.296 204.207Z" fill="#4EB7A1"/>
<path d="M117.541 198.865C117.541 198.865 108.608 189.427 113.353 185.077C118.098 180.727 117.541 198.865 117.541 198.865Z" fill="#4EB7A1"/>
<path d="M124.101 199.496C124.101 199.496 114.237 201.298 113.886 205.964C113.534 210.629 118.034 208.733 120.988 206.17C123.942 203.607 126.67 199.491 126.67 199.491L124.101 199.496Z" fill="#4EB7A1"/>
<path d="M134.221 198.408C134.221 198.408 121.474 197.386 123.054 191.132C124.634 184.878 130.404 193.357 130.404 193.357C130.404 193.357 132.299 197.584 135.883 198.369L134.221 198.408Z" fill="#4EB7A1"/>
<path d="M122.541 182.437C123.768 181.733 124.191 180.169 123.486 178.944C122.78 177.719 121.213 177.296 119.985 178.001C118.758 178.705 118.334 180.269 119.04 181.494C119.746 182.719 121.313 183.141 122.541 182.437Z" fill="#E63349"/>
<path d="M82.065 187.243C83.0829 187.173 83.8514 186.293 83.7814 185.277C83.7115 184.261 82.8296 183.494 81.8117 183.564C80.7938 183.634 80.0253 184.514 80.0952 185.53C80.1652 186.545 81.047 187.312 82.065 187.243Z" fill="#E63349"/>
<path opacity="0.61" d="M99.1168 175.67C98.0873 175.471 97.14 174.972 96.3946 174.236C95.6493 173.499 95.1394 172.559 94.9294 171.534C94.7194 170.509 94.8188 169.444 95.2149 168.475C95.6111 167.506 96.2862 166.676 97.155 166.09C98.0237 165.504 99.0471 165.188 100.096 165.183C101.144 165.177 102.171 165.482 103.046 166.058C103.921 166.635 104.606 167.457 105.012 168.422C105.419 169.387 105.53 170.45 105.331 171.477C105.063 172.855 104.258 174.071 103.093 174.857C101.928 175.643 100.498 175.935 99.1168 175.67ZM100.892 166.506C100.106 166.355 99.2924 166.439 98.5543 166.749C97.8161 167.059 97.1866 167.58 96.7454 168.247C96.3041 168.914 96.0709 169.697 96.0753 170.496C96.0797 171.295 96.3214 172.075 96.77 172.737C97.2185 173.399 97.8537 173.914 98.5952 174.215C99.3367 174.517 100.151 174.593 100.936 174.433C101.72 174.273 102.44 173.884 103.003 173.316C103.566 172.748 103.948 172.025 104.1 171.241C104.302 170.189 104.078 169.099 103.477 168.212C102.875 167.324 101.945 166.711 100.891 166.506H100.892Z" fill="#4EB7A1"/>
<path d="M401.281 195.544C405.659 196.475 412.687 195.307 419.622 192.497C427.39 189.348 433.895 184.736 437.937 179.511C442.227 174.028 444.562 167.275 444.574 160.32C444.606 155.032 443.331 151.35 443.321 151.314L442.982 151.433C442.994 151.469 444.249 155.103 444.215 160.332C444.185 167.201 441.877 173.868 437.653 179.291C433.648 184.468 427.197 189.037 419.487 192.164C412.615 194.949 405.667 196.11 401.355 195.193L401.281 195.544Z" fill="#4EB7A1"/>
<path d="M442.805 152.297C442.805 152.297 442.717 152.308 441.229 148.873C439.741 145.439 442.509 144.966 443.38 147.058C444.251 149.15 443.705 153.47 443.705 153.47L442.805 152.297Z" fill="#4EB7A1"/>
<path d="M444.383 159.267C444.383 159.267 447.865 154.51 447.878 156.591C447.892 158.672 444.383 159.267 444.383 159.267Z" fill="#4EB7A1"/>
<path d="M444.246 157C444.246 157 441.64 152.475 440.428 154.12C439.216 155.765 444.246 157 444.246 157Z" fill="#4EB7A1"/>
<path d="M443.747 166.276C443.747 166.276 451.804 154.595 451.363 160.444C450.978 165.562 443.747 166.276 443.747 166.276Z" fill="#4EB7A1"/>
<path d="M443.35 168.244C443.35 168.244 437.434 164.112 438.247 162.295C439.06 160.478 440.893 161.068 441.303 162.561C441.713 164.054 443.35 168.244 443.35 168.244Z" fill="#4EB7A1"/>
<path d="M448.889 171.633C448.889 171.633 448.382 166.972 442.287 172.216L441.54 173.261C441.54 173.261 448.612 173.737 448.889 171.633Z" fill="#4EB7A1"/>
<path d="M439.779 176.537C439.779 176.537 438.92 167.747 434.565 168.234C430.211 168.72 439.779 176.537 439.779 176.537Z" fill="#4EB7A1"/>
<path d="M437.172 180.176C437.172 180.176 442.505 175.934 445.058 177.837C447.611 179.74 444.627 181.198 441.991 181.564C439.354 181.93 436.019 181.488 436.019 181.488L437.172 180.176Z" fill="#4EB7A1"/>
<path d="M432.089 184.871C432.089 184.871 437.261 177.89 433.34 175.904C429.42 173.919 431.198 180.661 431.198 180.661C431.198 180.661 432.524 183.52 431.327 185.706L432.089 184.871Z" fill="#4EB7A1"/>
<path d="M399.985 205.444C405.079 208.014 410.529 210.073 415.746 211.395C419.954 212.458 424.003 213.066 427.839 213.202C429.277 213.253 430.684 213.238 432.059 213.156C437.81 212.816 443.306 211.488 448.394 209.21C452.507 207.36 456.329 204.926 459.743 201.983C465.637 196.92 468.492 191.972 468.519 191.919L468.184 191.728C468.156 191.777 465.328 196.682 459.48 201.701C454.087 206.33 444.949 212.009 432.037 212.776C422.41 213.345 411.085 210.621 400.16 205.104C390.418 200.184 395.154 203.006 399.985 205.444Z" fill="#4EB7A1"/>
<path d="M466.991 192.333C466.991 192.333 466.893 192.245 469.271 187.283C471.649 182.322 474.846 184.927 473.365 187.91C471.883 190.893 466.557 194.46 466.557 194.46L466.991 192.333Z" fill="#4EB7A1"/>
<path d="M460.774 200.809C460.774 200.809 469.419 200.066 467.12 202.09C464.82 204.115 460.774 200.809 460.774 200.809Z" fill="#4EB7A1"/>
<path d="M463.159 198.467C463.159 198.467 465.669 191.215 462.67 191.461C459.67 191.706 463.159 198.467 463.159 198.467Z" fill="#4EB7A1"/>
<path d="M452.375 206.871C452.375 206.871 473.129 204.504 466.207 209.664C460.15 214.181 452.375 206.871 452.375 206.871Z" fill="#4EB7A1"/>
<path d="M449.81 208.331C449.81 208.331 448.686 197.796 451.488 196.941C454.29 196.086 455.407 198.684 454.147 200.573C452.887 202.463 449.81 208.331 449.81 208.331Z" fill="#4EB7A1"/>
<path d="M451.389 217.734C451.389 217.734 456.076 212.673 444.366 210.995L442.485 211.172C442.485 211.172 448.784 219.46 451.389 217.734Z" fill="#4EB7A1"/>
<path d="M437.145 212.393C437.145 212.393 446.078 202.954 441.333 198.608C436.588 194.261 437.145 212.393 437.145 212.393Z" fill="#4EB7A1"/>
<path d="M430.584 213.023C430.584 213.023 440.448 214.826 440.799 219.49C441.151 224.154 436.651 222.259 433.697 219.696C430.743 217.132 428.015 213.017 428.015 213.017L430.584 213.023Z" fill="#4EB7A1"/>
<path d="M420.463 211.935C420.463 211.935 433.21 210.913 431.63 204.66C430.05 198.406 424.278 206.884 424.278 206.884C424.278 206.884 422.383 211.112 418.799 211.897L420.463 211.935Z" fill="#4EB7A1"/>
<path d="M435.924 194.341C436.249 192.966 435.395 191.588 434.016 191.265C432.638 190.941 431.257 191.793 430.933 193.169C430.608 194.544 431.463 195.921 432.841 196.245C434.219 196.569 435.6 195.717 435.924 194.341Z" fill="#E63349"/>
<path d="M473.884 200.374C474.691 199.751 474.84 198.594 474.216 197.788C473.592 196.982 472.432 196.834 471.624 197.457C470.817 198.079 470.669 199.237 471.292 200.043C471.916 200.848 473.077 200.997 473.884 200.374Z" fill="#E63349"/>
<path opacity="0.61" d="M455.569 189.196C456.599 188.997 457.546 188.498 458.291 187.762C459.036 187.026 459.545 186.086 459.755 185.061C459.965 184.036 459.866 182.971 459.469 182.003C459.073 181.034 458.398 180.204 457.529 179.619C456.661 179.033 455.637 178.717 454.589 178.711C453.541 178.706 452.514 179.01 451.639 179.587C450.764 180.163 450.08 180.986 449.673 181.95C449.267 182.914 449.156 183.977 449.355 185.005C449.623 186.382 450.428 187.597 451.593 188.383C452.758 189.169 454.188 189.461 455.569 189.196ZM453.794 180.033C454.58 179.881 455.394 179.966 456.133 180.275C456.871 180.585 457.501 181.107 457.942 181.774C458.384 182.441 458.617 183.224 458.613 184.023C458.608 184.822 458.367 185.602 457.918 186.265C457.469 186.927 456.834 187.442 456.092 187.743C455.35 188.045 454.535 188.121 453.751 187.961C452.966 187.8 452.246 187.411 451.683 186.843C451.12 186.275 450.738 185.552 450.586 184.767C450.384 183.715 450.608 182.626 451.21 181.738C451.811 180.851 452.741 180.238 453.795 180.033H453.794Z" fill="#4EB7A1"/>
<path d="M246.769 283.682C246.769 283.682 245.953 285.477 242.534 286.163C239.115 286.848 237.46 285.639 237.46 285.639L237.184 284.625C237.184 284.625 238.709 285.161 241.53 284.89C243.674 284.684 246.768 283.679 246.768 283.679L246.769 283.682Z" fill="#F1907C"/>
<path d="M249.193 284.361C249.193 284.361 255.082 291.524 260.663 291.725C264.191 291.851 263.935 295.142 263.149 295.579C262.362 296.017 249.227 296.044 247.464 295.825C246.953 295.765 246.461 295.597 246.02 295.333C245.579 295.069 245.199 294.714 244.905 294.292V296.077L238.739 296.096L239.323 286.078C239.323 286.078 243.437 287.526 249.193 284.361Z" fill="#1D1D1B"/>
<path d="M272.014 149.397C272.014 149.397 267.61 155.561 271.068 159.01C274.283 162.218 272.728 167.362 276.744 165.98C280.76 164.598 272.014 149.397 272.014 149.397Z" fill="#192530"/>
<path d="M247.361 288.161C247.361 288.161 246.444 289.956 242.616 290.642C238.788 291.328 236.935 290.118 236.935 290.118L236.626 289.104C236.626 289.104 238.334 289.64 241.493 289.37C243.895 289.163 247.362 288.16 247.362 288.16L247.361 288.161Z" fill="#F1907C"/>
<path d="M247.458 288.117C247.458 288.117 254.055 295.28 260.305 295.481C264.257 295.608 263.97 298.897 263.093 299.335C262.216 299.772 247.499 299.799 245.526 299.58C243.552 299.361 242.658 298.048 242.658 298.048V299.833L235.752 299.852L236.406 289.834C236.406 289.834 241.01 291.282 247.458 288.117Z" fill="#1D1D1B"/>
<path d="M274.463 157.187C274.463 157.187 275.528 162.866 275.528 165.781C275.528 165.781 284.723 165.781 285.696 164.702C285.696 164.702 283.316 160.388 284.074 153.693L274.463 157.187Z" fill="#F1907C"/>
<path d="M271.826 144.813C271.826 144.813 270.149 148.705 272.038 153.693C272.038 153.693 272.193 150.421 272.894 149.05C273.594 147.678 273.26 145.677 273.26 145.677L271.826 144.813Z" fill="#192530"/>
<path d="M280.723 138.013C280.723 138.013 275.206 136.67 273.26 143.255C271.313 149.84 272.239 155.058 274.517 157.804C275.274 158.716 276.726 159.656 278.627 159.248C279.967 158.961 282.99 158.273 285.26 152.011C287.531 145.748 288.296 139.523 280.723 138.013Z" fill="#F3A393"/>
<path d="M276.224 140.616C276.224 140.616 276.224 146.791 285.922 152.6C285.922 152.6 289.27 153.018 289.27 149.131C289.27 149.131 292.199 147.584 291.881 143.159C291.557 138.689 287.61 137.863 287.61 137.863C287.61 137.863 287.899 134.231 284.148 134.231C284.148 134.231 281.48 132.791 279.605 134.662C279.605 134.662 277.081 134.878 276.72 136.749C276.72 136.749 273.258 136.03 273.186 139.844C273.186 139.844 271.528 140.901 271.528 143.251C271.528 143.251 271.148 143.401 271.528 145.169C271.908 146.938 271.528 148.702 271.528 148.702C271.528 148.702 271.786 147.513 272.868 145.858C274.496 143.367 278.487 143.063 281.132 142.402L280.722 138.013L278.379 139.416L276.72 141.143L276.224 140.616Z" fill="#192530"/>
<path d="M282.611 194.477C282.611 194.477 291.157 166.518 284.126 162.523C277.095 158.528 271.383 168.216 270.626 169.619C269.868 171.023 266.009 174.629 265.736 176.557C264.979 181.954 268.332 181.415 268.765 186.489C269.198 191.562 269.63 196.961 269.63 196.961C269.63 196.961 279.905 199.767 282.611 194.477Z" fill="#F1907C"/>
<path d="M358.943 294.083C358.322 294.703 357.231 295.291 355.559 295.829C348.853 297.989 328.331 300.134 315.349 298.189C302.367 296.245 296.31 300.622 283.978 299.728C272.687 298.911 254.864 300.473 252.6 293.615C252.385 292.931 252.313 292.209 252.39 291.496C253.255 282.212 264.723 214.189 265.588 205.885C266.452 197.581 269.267 194.988 269.267 194.988C269.267 194.988 278.136 192.584 282.247 194.11C282.247 194.11 303.02 212.44 311.239 243.117C319.457 273.795 335.008 271.218 341.28 274.239C347.552 277.26 349.286 286.763 354.478 288.705C358.376 290.165 360.812 292.231 358.943 294.083Z" fill="#FFF3DD"/>
<path d="M285.853 164.509C285.853 164.509 281.693 160.394 277.508 163.993C273.322 167.592 273.259 173.349 273.259 173.349L268.63 172.142C268.63 172.142 273.129 163.343 278.7 161.96C284.468 160.53 285.853 164.509 285.853 164.509Z" fill="#FFF3DD"/>
<path d="M273.48 171.453C273.48 171.453 272.643 179.106 277.239 181.122C281.836 183.137 285.549 183.602 285.549 183.602L282.628 195.261L268.63 195.781C268.63 195.781 269.483 186.447 267.81 183.766C266.136 181.085 263.698 177.667 267.431 173.349C271.116 169.085 270.988 168.362 270.988 168.362L273.48 171.453Z" fill="#FFF3DD"/>
<path d="M280.842 196.3C280.842 196.3 291.803 192.052 302.554 205.66L300.457 211.679C300.457 211.679 297.917 197.14 280.842 196.3Z" fill="#E94A6D"/>
<path d="M280.914 195.959C280.914 195.959 290.577 195.305 295.682 208.637L292.553 212.855C292.553 212.855 294.131 200.803 280.914 195.959Z" fill="#E94A6D"/>
<path d="M282.056 194.999C282.056 194.999 290.924 199.724 292.202 194.379C293.261 189.949 284.865 190.481 281.231 196.13C281.231 196.13 284.094 193.048 286.202 192.586C288.333 192.116 290.21 192.343 290.427 193.784C290.664 195.358 287.267 195.226 282.056 194.999Z" fill="#E94A6D"/>
<path d="M284.069 163.293C284.069 163.293 276.93 160.918 277.038 170.957C277.146 180.997 275.956 187.69 276.281 192.008C276.606 196.326 278.011 194.923 279.418 194.167C280.825 193.411 286.99 176.031 286.99 170.093C286.99 164.156 284.069 163.293 284.069 163.293Z" fill="#F3A393"/>
<path d="M278.411 194.74C278.411 194.74 276.389 196.434 271.954 188.986C267.518 181.538 263.303 174.196 265.789 172.142C268.275 170.087 275.053 182.272 276.587 183.522C278.121 184.772 279.527 188.227 279.527 188.227C279.527 188.227 280.54 193.801 278.411 194.74Z" fill="#F3A393"/>
<path d="M266.22 175.167C266.22 175.167 263.083 173.361 262.977 169.247C262.868 165.073 261.356 162.197 261.391 161.184C261.419 160.387 261.457 160.121 261.457 160.121C261.457 160.121 261.384 158.532 262.399 159.639C263.185 160.497 264.701 164.579 265.789 165.78C267.355 167.507 267.476 168.376 267.545 170.537C267.626 173.032 267.608 173.871 267.608 173.871L266.22 175.167Z" fill="#F3A393"/>
<path d="M261.982 271.507C261.95 271.507 261.918 271.501 261.888 271.489C261.858 271.476 261.83 271.458 261.807 271.435C261.785 271.412 261.766 271.385 261.754 271.355C261.742 271.325 261.735 271.293 261.735 271.261C261.735 246.986 268.319 208.346 268.386 207.959C268.39 207.925 268.4 207.893 268.417 207.864C268.433 207.835 268.456 207.809 268.483 207.789C268.51 207.769 268.54 207.754 268.573 207.747C268.606 207.739 268.64 207.737 268.673 207.743C268.706 207.749 268.738 207.761 268.766 207.78C268.794 207.798 268.818 207.822 268.837 207.85C268.855 207.878 268.868 207.909 268.874 207.942C268.88 207.975 268.879 208.009 268.871 208.042C268.806 208.429 262.228 247.029 262.228 271.261C262.228 271.293 262.222 271.325 262.21 271.355C262.197 271.385 262.179 271.412 262.156 271.435C262.134 271.458 262.106 271.476 262.077 271.488C262.047 271.501 262.015 271.507 261.982 271.507Z" fill="#FFECC7"/>
<path d="M289.352 147.917C289.352 147.917 297.561 150.199 292.064 159.548C289.346 164.171 285.927 163.515 284.149 162.37C279.767 159.546 283.35 150.534 283.35 150.534L284.473 148.705L289.352 147.917Z" fill="#192530"/>
<path d="M291.31 157.495C291.31 157.495 294.785 158.893 294.167 164.425C293.896 166.861 289.517 170.552 286.637 169.032C282.97 167.094 284.868 159.244 285.7 158.776C286.532 158.309 291.31 157.495 291.31 157.495Z" fill="#192530"/>
<path d="M281.811 150.199C281.811 150.199 284.463 147.123 285.104 150.294C285.693 153.204 282.581 155.138 281.628 154.34C281.308 154.073 281.811 150.199 281.811 150.199Z" fill="#F3A393"/>
<path d="M283.101 153.121C282.206 153.903 281.65 155.001 281.551 156.184C281.385 158.174 283.101 159.248 283.101 159.248C283.101 159.248 283.865 158.081 283.617 156.184C283.37 154.287 283.101 153.121 283.101 153.121Z" fill="#FFF3DD"/>
<path d="M289.641 148.846C289.611 148.846 289.583 148.835 289.56 148.816C289.538 148.797 289.523 148.77 289.519 148.741C289.515 148.712 289.521 148.682 289.537 148.657C289.553 148.632 289.577 148.614 289.605 148.605C289.748 148.562 293.082 147.497 292.143 143.024C291.205 138.55 287.199 138.814 287.028 138.828C286.995 138.83 286.963 138.819 286.938 138.798C286.913 138.777 286.898 138.747 286.895 138.714C286.892 138.682 286.903 138.65 286.924 138.625C286.945 138.6 286.975 138.585 287.008 138.582C287.053 138.582 291.4 138.278 292.385 142.973C293.369 147.668 289.714 148.829 289.677 148.84C289.665 148.844 289.653 148.846 289.641 148.846Z" fill="#192530"/>
<path d="M292.541 155.25C292.409 155.251 292.276 155.239 292.145 155.215C292.129 155.212 292.113 155.207 292.099 155.198C292.085 155.189 292.073 155.177 292.063 155.164C292.054 155.15 292.047 155.134 292.044 155.118C292.04 155.102 292.04 155.085 292.044 155.069C292.047 155.052 292.054 155.037 292.063 155.023C292.073 155.009 292.085 154.998 292.099 154.989C292.113 154.98 292.129 154.974 292.146 154.972C292.162 154.969 292.179 154.97 292.195 154.974C292.204 154.974 293.083 155.151 293.663 154.604C294.132 154.161 294.284 153.363 294.12 152.25C293.632 148.989 290.131 148.847 290.097 148.846C290.08 148.846 290.064 148.842 290.05 148.835C290.035 148.829 290.021 148.819 290.01 148.807C289.999 148.796 289.99 148.782 289.985 148.767C289.979 148.752 289.976 148.735 289.977 148.719C289.978 148.687 289.993 148.656 290.016 148.634C290.04 148.612 290.071 148.6 290.104 148.6C290.141 148.6 293.846 148.751 294.365 152.213C294.542 153.417 294.365 154.282 293.832 154.783C293.419 155.172 292.896 155.25 292.541 155.25Z" fill="#192530"/>
<path d="M268.742 194.177C268.742 194.177 272.816 196.408 277.329 195.798C280.773 195.334 282.643 194.398 282.643 194.398L283.821 195.672C283.821 195.672 281.453 197.417 275.508 197.705C270.775 197.933 268.062 196.651 268.062 196.651L268.742 194.177Z" fill="#E94A6D"/>
<path d="M272.614 190.756C272.614 190.756 275.878 189.365 278.632 189.033C281.315 188.711 280.612 191.239 278.588 191.425L272.867 192.411L272.614 190.756Z" fill="#F1907C"/>
<path d="M277.406 191.345C277.406 191.345 279.396 190.87 280.691 192.183C281.696 193.199 280.431 197.921 278.806 198.589C275.61 199.903 271.082 197.212 271.082 197.212L272.3 191.79L277.406 191.345Z" fill="#F1907C"/>
<path d="M232.159 216.596C232.159 216.596 236.428 218.654 245.407 217.359C254.386 216.063 263.641 213.625 263.641 213.625L244.167 209.585L232.159 216.596Z" fill="#192530"/>
<path d="M257.164 153.224L260.969 171.369L253.702 158.906L255.925 157.607L257.164 153.224Z" fill="#EDE3CF"/>
<path d="M253.192 137.147C253.192 137.147 250.892 132.717 249.741 136.566C248.889 139.411 250.679 142.745 251.633 141.946C251.953 141.681 253.192 137.147 253.192 137.147Z" fill="#F08773"/>
<path d="M258.338 155.327C258.338 155.327 259.282 158.42 258.122 158.685C256.962 158.95 255.154 157.431 255.154 157.431L256.93 154.781L258.338 155.327Z" fill="#E94A6D"/>
<path d="M271.129 189.475L273.426 189.796C273.426 189.796 273.995 195.103 271.291 198.145L269.614 197.702L271.129 189.475Z" fill="white"/>
<path d="M238.821 205.963L243.151 247.201C243.151 247.201 239.04 253.462 237.526 291.03C237.526 291.03 247.203 292.492 252.826 287.958C252.826 287.958 257.646 256.701 257.646 252.382C257.646 248.063 260.626 212.009 260.626 212.009L238.821 205.963Z" fill="#192530"/>
<path d="M235.745 205.963L240.072 247.201C240.072 247.201 235.96 253.462 234.451 291.03C234.451 291.03 244.66 293.39 250.164 290.232C250.164 290.232 254.573 256.705 254.573 252.386C254.573 248.067 259.11 211.642 259.11 211.642L235.745 205.963Z" fill="#182D3E"/>
<path d="M251.571 139.06C251.571 139.06 250.874 145.819 246.777 149.696L255.921 157.607C255.921 157.607 256.522 151.875 260.627 148.401L251.571 139.06Z" fill="#F08773"/>
<path d="M258.231 157.804C258.231 157.804 260.705 166.871 261.058 171.927L259.626 168.93L256.341 158.237L258.231 157.804Z" fill="#E94A6D"/>
<path d="M262.274 129.617C262.274 129.617 273.05 129.778 265.935 144.093C265.935 144.093 262.172 150.006 257.336 150.504C253.334 150.916 249.978 147.288 251.09 138.443C252.102 130.401 259.167 128.96 262.274 129.617Z" fill="#F39E89"/>
<path d="M247.245 147.97C247.245 147.97 245.736 149.199 245.407 150.818L255.152 160.318L257.736 155.327C257.736 155.327 250.923 147.82 247.245 147.97Z" fill="#FFF3DD"/>
<path d="M245.697 148.93C245.697 148.93 234.648 154.059 234.756 164.206C234.864 174.354 232.159 216.593 232.159 216.593L236.502 214.566L236.727 216.593C236.727 216.593 242.344 213.594 251.863 213.918C261.383 214.243 263.641 213.623 263.641 213.623C263.641 213.623 261.491 174.191 261.058 171.924C260.625 169.657 251.43 148.93 245.697 148.93Z" fill="#213445"/>
<path d="M248.977 151.797C248.977 151.797 245.227 149.062 241.477 151.797C237.727 154.532 236.428 160.29 237.582 163.314C238.736 166.339 243.749 192.443 247.067 192.155C250.385 191.867 255.296 185.559 255.152 181.961C255.008 178.362 253.737 160.29 248.977 151.797Z" fill="#192530"/>
<path d="M252.583 180.297C252.583 180.297 264.124 188.242 271.766 189.224C271.766 189.224 273.208 192.82 270.756 198.145C270.756 198.145 244.978 196.373 245.44 189.463C245.903 182.552 252.583 180.297 252.583 180.297Z" fill="#192530"/>
<path d="M246.286 148.299L241.679 151.566C241.679 151.566 254.529 156.72 261.058 171.927C261.058 171.927 254.363 153.265 246.286 148.299Z" fill="#192530"/>
<path d="M251.571 136.211C251.571 136.211 254.105 131.319 257.736 132.615C261.367 133.91 262.573 140.314 267.209 139.641C270.012 139.234 272.726 135.743 271.545 130.887C270.234 125.491 263.207 128.188 263.207 128.188C263.207 128.188 262.016 128.674 261.367 127.595C260.124 125.524 256.986 125.705 255.959 127.668C255.238 129.045 255.835 126.569 253.192 128.732C250.55 130.894 251.571 136.211 251.571 136.211Z" fill="#192530"/>
<path d="M257.736 152.043L259.499 155.328L257.336 155.56L255.886 154.143L257.736 152.043Z" fill="#FFF3DD"/>
<path d="M271.826 136.167C271.809 136.168 271.793 136.164 271.778 136.158C271.748 136.145 271.724 136.121 271.712 136.09C271.699 136.06 271.7 136.026 271.712 135.996C271.734 135.948 273.745 131.135 270.634 128.5C267.15 125.549 262.101 129.039 262.051 129.074L261.675 129.34L261.867 128.924C261.91 128.831 262.953 126.639 265.793 126C265.809 125.996 265.825 125.995 265.842 125.997C265.858 126 265.874 126.005 265.888 126.014C265.903 126.022 265.915 126.034 265.925 126.047C265.934 126.061 265.941 126.076 265.945 126.092C265.948 126.108 265.949 126.125 265.946 126.141C265.943 126.158 265.937 126.173 265.927 126.187C265.918 126.201 265.906 126.213 265.892 126.222C265.879 126.231 265.863 126.237 265.847 126.24C264.421 126.553 263.168 127.397 262.345 128.6C263.677 127.812 267.779 125.765 270.794 128.316C274.044 131.069 271.961 136.046 271.939 136.095C271.93 136.117 271.913 136.135 271.893 136.148C271.873 136.161 271.85 136.168 271.826 136.167Z" fill="#192530"/>
<path d="M263.893 196.022C263.893 196.149 263.855 196.272 263.785 196.377C263.715 196.482 263.615 196.563 263.498 196.612C263.381 196.66 263.253 196.673 263.129 196.648C263.005 196.623 262.891 196.563 262.802 196.473C262.712 196.384 262.651 196.271 262.627 196.147C262.602 196.023 262.615 195.895 262.663 195.778C262.711 195.662 262.793 195.562 262.898 195.492C263.004 195.422 263.127 195.385 263.254 195.385C263.423 195.385 263.586 195.452 263.705 195.571C263.825 195.691 263.893 195.853 263.893 196.022Z" fill="#213445"/>
<path d="M265.457 196.31C265.457 196.437 265.42 196.56 265.35 196.666C265.279 196.771 265.18 196.853 265.063 196.901C264.946 196.95 264.817 196.962 264.693 196.938C264.568 196.913 264.454 196.853 264.365 196.763C264.275 196.674 264.214 196.56 264.189 196.436C264.164 196.312 264.177 196.184 264.225 196.067C264.274 195.95 264.356 195.85 264.461 195.78C264.567 195.71 264.69 195.672 264.817 195.672C264.901 195.672 264.984 195.689 265.062 195.721C265.14 195.753 265.21 195.8 265.27 195.859C265.329 195.918 265.376 195.989 265.408 196.066C265.441 196.143 265.457 196.227 265.457 196.31Z" fill="#213445"/>
<path d="M266.476 197.128C266.829 197.128 267.115 196.843 267.115 196.49C267.115 196.138 266.829 195.852 266.476 195.852C266.123 195.852 265.837 196.138 265.837 196.49C265.837 196.843 266.123 197.128 266.476 197.128Z" fill="#213445"/>
<path d="M283.544 153.302C283.545 153.405 283.514 153.506 283.457 153.592C283.4 153.678 283.318 153.745 283.223 153.784C283.127 153.824 283.022 153.834 282.921 153.814C282.82 153.794 282.726 153.744 282.653 153.671C282.58 153.599 282.531 153.506 282.51 153.405C282.49 153.303 282.501 153.199 282.54 153.103C282.58 153.008 282.647 152.927 282.733 152.87C282.819 152.812 282.92 152.782 283.023 152.782C283.162 152.782 283.294 152.837 283.392 152.934C283.49 153.032 283.544 153.164 283.544 153.302Z" fill="#E94A6D"/>
<path d="M290.525 149.413C291.173 149.413 291.698 148.889 291.698 148.243C291.698 147.596 291.173 147.072 290.525 147.072C289.877 147.072 289.352 147.596 289.352 148.243C289.352 148.889 289.877 149.413 290.525 149.413Z" fill="#E62D62"/>
<path d="M290.971 148.531C291.452 148.531 291.843 148.142 291.843 147.661C291.843 147.181 291.452 146.791 290.971 146.791C290.489 146.791 290.099 147.181 290.099 147.661C290.099 148.142 290.489 148.531 290.971 148.531Z" fill="#E94A6D"/>
<path d="M290.099 148.201C290.099 148.201 289.896 149.274 287.335 148.532C287.335 148.532 288.613 147.58 289.555 147.665C289.697 147.667 289.833 147.724 289.935 147.824C290.036 147.924 290.095 148.059 290.099 148.201Z" fill="#FFF3DD"/>
<path d="M290.611 148.089C290.611 148.089 291.179 149.019 288.782 150.182C288.782 150.182 289.092 148.621 289.852 148.056C289.959 147.963 290.097 147.916 290.238 147.922C290.38 147.928 290.513 147.988 290.611 148.089Z" fill="#FFF3DD"/>
<path d="M290.525 148.459C290.525 148.459 289.637 149.093 288.299 146.791C288.299 146.791 289.882 146.984 290.506 147.699C290.606 147.799 290.664 147.933 290.668 148.075C290.671 148.216 290.62 148.354 290.525 148.459Z" fill="#FFF3DD"/>
<path d="M301.723 229.621C301.672 229.621 301.622 229.605 301.581 229.576C301.54 229.547 301.508 229.506 301.491 229.459C297.37 218.042 283.616 200.971 283.477 200.799C283.439 200.748 283.423 200.685 283.431 200.622C283.439 200.559 283.471 200.501 283.521 200.461C283.571 200.422 283.634 200.402 283.697 200.408C283.761 200.413 283.82 200.443 283.861 200.491C284 200.662 297.806 217.797 301.954 229.292C301.965 229.323 301.97 229.355 301.969 229.387C301.968 229.419 301.96 229.451 301.946 229.48C301.932 229.51 301.913 229.536 301.889 229.558C301.865 229.579 301.837 229.596 301.806 229.607C301.779 229.616 301.751 229.621 301.723 229.621Z" fill="#FFECC7"/>
<path d="M293.931 228.83C293.866 228.828 293.804 228.801 293.759 228.754C293.714 228.706 293.689 228.643 293.69 228.578C293.981 215.58 280.999 200.174 280.868 200.02C280.829 199.97 280.81 199.906 280.817 199.843C280.823 199.78 280.854 199.721 280.903 199.68C280.952 199.639 281.014 199.618 281.078 199.622C281.142 199.626 281.201 199.655 281.244 199.702C281.377 199.857 294.479 215.403 294.184 228.589C294.182 228.654 294.155 228.716 294.107 228.761C294.06 228.806 293.997 228.831 293.931 228.83Z" fill="#FFECC7"/>
<path d="M330.863 274.89C330.83 274.89 330.798 274.883 330.768 274.87C330.491 274.755 330.191 274.652 329.843 274.533C328.063 273.921 325.373 272.996 320.6 268.636C312.138 260.908 308.308 248.803 308.27 248.682C308.261 248.651 308.257 248.619 308.26 248.586C308.263 248.554 308.273 248.523 308.288 248.494C308.318 248.436 308.37 248.393 308.433 248.374C308.495 248.354 308.563 248.36 308.621 248.391C308.679 248.421 308.722 248.473 308.742 248.536C308.779 248.656 312.572 260.636 320.933 268.273C325.631 272.564 328.262 273.469 330.003 274.068C330.344 274.185 330.666 274.295 330.958 274.417C331.01 274.439 331.053 274.478 331.08 274.528C331.106 274.579 331.115 274.636 331.103 274.692C331.092 274.747 331.062 274.798 331.018 274.834C330.974 274.87 330.919 274.89 330.863 274.89Z" fill="#FFECC7"/>
<path d="M307.071 244.374C307.017 244.374 306.966 244.357 306.923 244.325C306.88 244.293 306.849 244.248 306.835 244.197C305.284 238.953 302.71 232.769 302.684 232.707C302.661 232.648 302.662 232.581 302.687 232.522C302.712 232.462 302.759 232.415 302.819 232.391C302.878 232.366 302.945 232.365 303.005 232.389C303.065 232.413 303.113 232.459 303.139 232.518C303.165 232.58 305.749 238.789 307.307 244.058C307.316 244.089 307.319 244.121 307.316 244.154C307.312 244.186 307.303 244.217 307.287 244.245C307.272 244.274 307.251 244.299 307.226 244.319C307.201 244.339 307.172 244.355 307.141 244.364C307.118 244.371 307.094 244.374 307.071 244.374Z" fill="#FFECC7"/>
<path d="M243.74 251.104C243.71 251.104 243.68 251.098 243.651 251.086C241.399 250.187 240.722 247.785 240.693 247.683C240.678 247.621 240.689 247.556 240.722 247.502C240.754 247.447 240.807 247.408 240.868 247.391C240.93 247.374 240.995 247.382 241.051 247.412C241.107 247.443 241.149 247.494 241.168 247.554C241.175 247.576 241.815 249.823 243.832 250.629C243.885 250.65 243.929 250.689 243.956 250.739C243.984 250.789 243.993 250.847 243.982 250.903C243.972 250.959 243.942 251.009 243.899 251.046C243.855 251.083 243.8 251.103 243.743 251.104H243.74Z" fill="#192530"/>
<path d="M243.807 249.662C242.231 249.662 241.126 248.63 241.069 248.576C241.042 248.555 241.02 248.528 241.004 248.498C240.989 248.468 240.979 248.435 240.977 248.4C240.975 248.366 240.979 248.332 240.991 248.3C241.003 248.268 241.021 248.238 241.045 248.214C241.069 248.189 241.097 248.17 241.129 248.157C241.16 248.143 241.195 248.137 241.229 248.138C241.263 248.139 241.297 248.147 241.328 248.161C241.359 248.176 241.386 248.196 241.409 248.222C241.424 248.236 242.931 249.633 244.816 249.006C244.847 248.994 244.881 248.988 244.914 248.99C244.948 248.991 244.98 248.999 245.011 249.013C245.041 249.027 245.068 249.047 245.09 249.072C245.112 249.097 245.129 249.126 245.14 249.158C245.15 249.19 245.154 249.223 245.152 249.257C245.149 249.29 245.139 249.322 245.123 249.352C245.108 249.381 245.086 249.407 245.06 249.428C245.034 249.449 245.004 249.464 244.972 249.473C244.596 249.598 244.203 249.662 243.807 249.662Z" fill="#192530"/>
<path d="M236.555 213.932C236.494 213.932 236.435 213.909 236.39 213.869C236.345 213.828 236.316 213.772 236.31 213.712L235.5 205.988C235.495 205.955 235.496 205.921 235.504 205.889C235.512 205.856 235.527 205.826 235.547 205.799C235.568 205.772 235.593 205.75 235.623 205.734C235.652 205.717 235.684 205.707 235.718 205.703C235.751 205.7 235.785 205.703 235.817 205.713C235.849 205.723 235.879 205.74 235.904 205.761C235.93 205.783 235.951 205.81 235.965 205.84C235.98 205.871 235.988 205.903 235.99 205.937L236.8 213.66C236.804 213.692 236.801 213.725 236.792 213.756C236.783 213.787 236.767 213.816 236.747 213.841C236.727 213.866 236.702 213.887 236.673 213.902C236.645 213.918 236.613 213.927 236.581 213.931L236.555 213.932Z" fill="#192530"/>
<path d="M293.342 114.444C293.53 114.527 293.733 114.57 293.939 114.572C294.145 114.573 294.349 114.533 294.538 114.453C296.537 113.609 302.84 109.377 302.84 105.121C302.84 99.0152 295.392 98.4544 294.018 102.262C294.014 102.282 294.003 102.299 293.987 102.312C293.971 102.324 293.952 102.331 293.932 102.331C293.911 102.331 293.892 102.324 293.876 102.312C293.861 102.299 293.85 102.282 293.845 102.262C292.632 98.4624 285.036 98.877 285.036 105.125C285.036 109.24 291.349 113.57 293.342 114.444Z" fill="#E94A6D"/>
<path d="M310.921 155.6C310.993 155.632 311.071 155.648 311.149 155.648C311.228 155.648 311.305 155.632 311.377 155.6C312.14 155.279 314.544 153.665 314.544 152.042C314.544 149.712 311.703 149.499 311.179 150.951C311.177 150.958 311.172 150.964 311.166 150.968C311.16 150.972 311.153 150.975 311.146 150.975C311.139 150.975 311.132 150.972 311.126 150.968C311.12 150.964 311.116 150.958 311.113 150.951C310.65 149.502 307.753 149.659 307.753 152.042C307.753 153.617 310.161 155.266 310.921 155.6Z" fill="#E94A6D"/>
<path d="M317.821 145.143C317.954 145.201 318.098 145.232 318.244 145.233C318.39 145.234 318.534 145.205 318.668 145.148C320.089 144.551 324.551 141.552 324.551 138.536C324.551 134.209 319.274 133.812 318.3 136.51C318.295 136.523 318.287 136.534 318.276 136.542C318.265 136.549 318.252 136.554 318.239 136.554C318.225 136.554 318.212 136.549 318.201 136.542C318.19 136.534 318.182 136.523 318.177 136.51C317.318 133.818 311.935 134.111 311.935 138.538C311.935 141.457 316.408 144.523 317.821 145.143Z" fill="#E94A6D"/>
<path d="M257.444 113.296C257.59 113.36 257.748 113.394 257.908 113.395C258.067 113.396 258.225 113.365 258.373 113.303C259.924 112.647 264.819 109.361 264.819 106.056C264.819 101.314 259.036 100.879 257.969 103.836C257.964 103.85 257.955 103.862 257.943 103.871C257.931 103.88 257.917 103.885 257.902 103.885C257.887 103.885 257.872 103.88 257.86 103.871C257.848 103.862 257.839 103.85 257.835 103.836C256.893 100.885 250.993 101.208 250.993 106.058C250.992 109.257 255.894 112.617 257.444 113.296Z" fill="#E94A6D"/>
<path d="M230.694 130.628C230.782 130.662 230.879 130.662 230.966 130.628C231.422 130.451 232.857 129.575 232.857 128.693C232.857 127.425 231.161 127.309 230.848 128.099C230.846 128.103 230.844 128.106 230.84 128.108C230.837 128.111 230.833 128.112 230.829 128.112C230.824 128.112 230.82 128.111 230.817 128.108C230.813 128.106 230.811 128.103 230.809 128.099C230.532 127.31 228.803 127.396 228.803 128.693C228.803 129.549 230.24 130.448 230.694 130.628Z" fill="#E94A6D"/>
<path d="M224.177 124.97C224.365 125.043 224.573 125.043 224.76 124.97C225.736 124.596 228.803 122.718 228.803 120.83C228.803 118.121 225.175 117.872 224.506 119.561C224.504 119.571 224.498 119.581 224.49 119.587C224.482 119.594 224.472 119.597 224.462 119.597C224.451 119.597 224.441 119.594 224.433 119.587C224.425 119.581 224.419 119.571 224.417 119.561C223.827 117.878 220.127 118.055 220.127 120.832C220.132 122.662 223.206 124.582 224.177 124.97Z" fill="#E94A6D"/>
<path d="M123.035 142.806C127.481 139.233 132.383 136.089 137.21 133.712C141.104 131.795 144.94 130.363 148.662 129.434C150.059 129.086 151.438 128.809 152.8 128.602C158.496 127.74 164.148 127.893 169.599 129.07C174.007 130.025 178.253 131.613 182.205 133.782C189.026 137.51 192.85 141.761 192.889 141.804L192.601 142.059C192.563 142.017 188.774 137.806 182.007 134.112C175.767 130.704 165.645 127.048 152.856 128.982C143.321 130.425 132.816 135.441 123.278 143.106C114.779 149.938 118.822 146.194 123.035 142.806Z" fill="#4EB7A1"/>
<path d="M191.311 141.714C191.311 141.714 191.232 141.82 194.596 146.18C197.96 150.541 200.544 147.332 198.469 144.717C196.394 142.103 190.445 139.724 190.445 139.724L191.311 141.714Z" fill="#4EB7A1"/>
<path d="M183.462 134.716C183.462 134.716 192.074 133.648 189.402 132.147C186.731 130.646 183.462 134.716 183.462 134.716Z" fill="#4EB7A1"/>
<path d="M186.283 136.511C186.283 136.511 190.251 143.083 187.266 143.466C184.28 143.848 186.283 136.511 186.283 136.511Z" fill="#4EB7A1"/>
<path d="M173.983 130.528C173.983 130.528 194.777 128.533 186.93 124.924C180.064 121.765 173.983 130.528 173.983 130.528Z" fill="#4EB7A1"/>
<path d="M171.17 129.636C171.17 129.636 172.267 140.173 175.186 140.428C178.106 140.683 178.656 137.909 177.029 136.319C175.401 134.728 171.17 129.636 171.17 129.636Z" fill="#4EB7A1"/>
<path d="M170.754 120.11C170.754 120.11 176.393 124.087 165.29 128.16L163.412 128.374C163.412 128.374 167.845 118.963 170.754 120.11Z" fill="#4EB7A1"/>
<path d="M157.935 128.293C157.935 128.293 168.641 135.669 164.906 140.907C161.171 146.145 157.935 128.293 157.935 128.293Z" fill="#4EB7A1"/>
<path d="M151.387 129.039C151.387 129.039 160.658 125.229 160.03 120.594C159.403 115.959 155.394 118.747 153.041 121.868C150.688 124.989 148.876 129.581 148.876 129.581L151.387 129.039Z" fill="#4EB7A1"/>
<path d="M141.714 132.205C141.714 132.205 154.395 130.557 154.154 137.002C153.914 143.446 146.499 136.353 146.499 136.353C146.499 136.353 143.764 132.612 140.095 132.588L141.714 132.205Z" fill="#4EB7A1"/>
<path d="M430.301 240.931C425.855 237.358 420.953 234.213 416.126 231.837C412.232 229.919 408.396 228.488 404.674 227.558C403.278 227.21 401.899 226.933 400.537 226.727C394.84 225.864 389.188 226.022 383.738 227.194C379.33 228.15 375.083 229.737 371.131 231.907C364.31 235.635 360.486 239.885 360.448 239.928L360.735 240.183C360.774 240.141 364.563 235.931 371.33 232.236C377.569 228.828 387.692 225.172 400.48 227.107C410.015 228.549 420.52 233.565 430.06 241.23C438.562 248.067 434.517 244.319 430.301 240.931Z" fill="#4EB7A1"/>
<path d="M362.028 239.839C362.028 239.839 362.107 239.944 358.743 244.305C355.379 248.665 352.795 245.452 354.87 242.842C356.945 240.232 362.895 237.849 362.895 237.849L362.028 239.839Z" fill="#4EB7A1"/>
<path d="M369.877 232.841C369.877 232.841 361.266 231.771 363.937 230.271C366.608 228.771 369.877 232.841 369.877 232.841Z" fill="#4EB7A1"/>
<path d="M367.056 234.635C367.056 234.635 363.088 241.207 366.074 241.59C369.059 241.973 367.056 234.635 367.056 234.635Z" fill="#4EB7A1"/>
<path d="M379.356 228.653C379.356 228.653 358.561 226.657 366.409 223.048C373.276 219.894 379.356 228.653 379.356 228.653Z" fill="#4EB7A1"/>
<path d="M382.169 227.76C382.169 227.76 381.071 238.297 378.153 238.551C375.234 238.805 374.683 236.033 376.31 234.443C377.938 232.853 382.169 227.76 382.169 227.76Z" fill="#4EB7A1"/>
<path d="M382.585 218.235C382.585 218.235 376.946 222.212 388.049 226.284L389.927 226.498C389.927 226.498 385.493 217.087 382.585 218.235Z" fill="#4EB7A1"/>
<path d="M395.404 226.417C395.404 226.417 384.698 233.794 388.433 239.031C392.168 244.269 395.404 226.417 395.404 226.417Z" fill="#4EB7A1"/>
<path d="M401.952 227.163C401.952 227.163 392.681 223.354 393.309 218.718C393.936 214.083 397.945 216.871 400.298 219.992C402.652 223.114 404.463 227.705 404.463 227.705L401.952 227.163Z" fill="#4EB7A1"/>
<path d="M411.625 230.329C411.625 230.329 398.944 228.681 399.185 235.126C399.427 241.571 406.84 234.478 406.84 234.478C406.84 234.478 409.575 230.736 413.245 230.712L411.625 230.329Z" fill="#4EB7A1"/>
<path d="M146.069 125.093C147.295 124.098 147.481 122.3 146.485 121.076C145.488 119.852 143.686 119.666 142.46 120.661C141.233 121.656 141.047 123.454 142.044 124.678C143.04 125.902 144.843 126.087 146.069 125.093Z" fill="#E63349"/>
<path opacity="0.61" d="M172.976 159.384C171.946 159.186 170.998 158.687 170.252 157.95C169.506 157.214 168.996 156.274 168.785 155.248C168.575 154.222 168.674 153.157 169.071 152.188C169.467 151.218 170.142 150.388 171.011 149.802C171.88 149.215 172.904 148.899 173.953 148.893C175.002 148.888 176.029 149.192 176.905 149.769C177.78 150.346 178.465 151.169 178.872 152.134C179.278 153.099 179.389 154.163 179.19 155.191C178.922 156.569 178.117 157.784 176.952 158.57C175.787 159.356 174.357 159.649 172.976 159.384ZM174.751 150.217C173.965 150.066 173.151 150.15 172.412 150.46C171.674 150.77 171.044 151.291 170.602 151.959C170.161 152.626 169.927 153.409 169.932 154.208C169.936 155.008 170.178 155.788 170.627 156.45C171.075 157.113 171.711 157.628 172.453 157.93C173.195 158.232 174.009 158.307 174.794 158.147C175.579 157.987 176.299 157.598 176.862 157.029C177.426 156.461 177.808 155.739 177.96 154.954C178.164 153.9 177.941 152.809 177.339 151.92C176.738 151.031 175.807 150.417 174.751 150.213V150.217Z" fill="#4EB7A1"/>
<path opacity="0.61" d="M386.636 204.934C385.606 204.735 384.658 204.236 383.912 203.5C383.166 202.764 382.656 201.823 382.446 200.798C382.235 199.772 382.335 198.707 382.731 197.738C383.127 196.768 383.802 195.938 384.671 195.351C385.54 194.765 386.564 194.449 387.613 194.443C388.662 194.437 389.69 194.742 390.565 195.319C391.441 195.896 392.125 196.719 392.532 197.684C392.939 198.649 393.05 199.713 392.85 200.741C392.582 202.118 391.777 203.334 390.612 204.12C389.447 204.906 388.017 205.199 386.636 204.934ZM388.412 195.767C387.625 195.616 386.811 195.7 386.073 196.01C385.334 196.32 384.704 196.842 384.263 197.509C383.822 198.176 383.588 198.959 383.593 199.759C383.597 200.558 383.839 201.338 384.288 202.001C384.737 202.663 385.372 203.178 386.114 203.48C386.856 203.782 387.671 203.857 388.456 203.697C389.241 203.537 389.96 203.148 390.524 202.579C391.087 202.011 391.469 201.288 391.621 200.503C391.824 199.451 391.6 198.36 390.998 197.472C390.396 196.584 389.465 195.971 388.411 195.767H388.412Z" fill="#4EB7A1"/>
<path d="M374.166 216.29C375.195 215.093 375.056 213.29 373.856 212.263C372.657 211.237 370.85 211.375 369.822 212.573C368.793 213.77 368.932 215.572 370.131 216.599C371.331 217.625 373.137 217.487 374.166 216.29Z" fill="#E63349"/>
<path d="M301.97 126.674C302.093 126.722 302.229 126.722 302.351 126.674C302.987 126.43 304.992 125.204 304.992 123.97C304.992 122.198 302.623 122.037 302.185 123.141C302.183 123.147 302.179 123.151 302.174 123.154C302.169 123.157 302.163 123.159 302.158 123.159C302.152 123.159 302.146 123.157 302.141 123.154C302.136 123.151 302.132 123.147 302.13 123.141C301.744 122.04 299.327 122.16 299.327 123.97C299.327 125.167 301.336 126.421 301.97 126.674Z" fill="#E94A6D"/>
</g>
<defs>
<clipPath id="clip0_0_1">
<rect width="1440" height="1479" fill="white" transform="translate(0 -62)"/>
</clipPath>
</defs>
</svg>
